<svg width="25" height="24" viewBox="0 0 25 24" fill="none" xmlns="http://www.w3.org/2000/svg">
<g clip-path="url(#clip0_314_18275)">
<path d="M10.7188 10.875C7.72048 10.875 5.28125 8.43577 5.28125 5.4375C5.28125 2.43923 7.72048 0 10.7188 0C13.717 0 16.1562 2.43923 16.1562 5.4375C16.1562 8.43577 13.717 10.875 10.7188 10.875Z" fill="white"/>
<path d="M12.8281 14.8594C12.8281 13.6556 13.1661 12.5294 13.7519 11.5703C12.8372 12.0247 11.8076 12.2813 10.7188 12.2813C9.3065 12.2813 7.99288 11.8512 6.90177 11.1153C5.55261 11.6383 4.31492 12.4414 3.26103 13.4953C1.26894 15.4874 0.171875 18.1359 0.171875 20.9531V23.2969C0.171875 23.6852 0.486687 24 0.875 24H20.5625C20.9508 24 21.2656 23.6852 21.2656 23.2969V20.9531C21.2656 20.9109 21.2645 20.8685 21.2639 20.8262C20.6043 21.0599 19.895 21.1875 19.1562 21.1875C15.6669 21.1875 12.8281 18.3487 12.8281 14.8594Z" fill="white"/>
<path d="M19.1562 9.9375C16.4423 9.9375 14.2344 12.1455 14.2344 14.8594C14.2344 17.5733 16.4423 19.7812 19.1562 19.7812C21.8702 19.7812 24.0781 17.5733 24.0781 14.8594C24.0781 12.1455 21.8702 9.9375 19.1562 9.9375ZM20.5625 15.5625H19.8594V16.2656C19.8594 16.6539 19.5446 16.9688 19.1562 16.9688C18.7679 16.9688 18.4531 16.6539 18.4531 16.2656V15.5625H17.75C17.3617 15.5625 17.0469 15.2477 17.0469 14.8594C17.0469 14.4711 17.3617 14.1562 17.75 14.1562H18.4531V13.4531C18.4531 13.0648 18.7679 12.75 19.1562 12.75C19.5446 12.75 19.8594 13.0648 19.8594 13.4531V14.1562H20.5625C20.9508 14.1562 21.2656 14.4711 21.2656 14.8594C21.2656 15.2477 20.9508 15.5625 20.5625 15.5625Z" fill="white"/>
</g>
<defs>
<clipPath id="clip0_314_18275">
<rect width="24" height="24" fill="white" transform="translate(0.125)"/>
</clipPath>
</defs>
</svg>
