<svg width="34" height="34" viewBox="0 0 34 34" fill="none" xmlns="http://www.w3.org/2000/svg">
<g id="Auto">
<g id="Group">
<path id="Vector" d="M27.6691 14.5286H27.6679C27.0406 14.5286 26.5312 15.0362 26.5312 15.6652V18.3348C26.5312 18.9646 27.0413 19.4714 27.6679 19.4714C28.3037 19.4714 28.8067 18.9565 28.8067 18.3336V15.6664C28.8068 15.0358 28.2959 14.5286 27.6691 14.5286Z" fill="#7361C6"/>
<path id="Vector_2" d="M30.87 6.40155H3.12999C1.38444 6.40155 0 7.8182 0 9.53148V24.4685C0 26.2169 1.41963 27.5984 3.12999 27.5984H30.87C32.6156 27.5984 34 26.1818 34 24.4685V9.53148C34 7.78307 32.5804 6.40155 30.87 6.40155ZM9.4607 20.2008C9.4607 20.7509 9.01472 21.1969 8.46461 21.1969C7.9145 21.1969 7.46851 20.7509 7.46851 20.2008V19.063H5.19297V20.2008C5.19297 20.7509 4.74698 21.1969 4.19688 21.1969C3.64677 21.1969 3.20078 20.7509 3.20078 20.2008V15.6652C3.20078 13.9342 4.60195 12.5364 6.32964 12.5364C8.05654 12.5364 9.46063 13.9405 9.46063 15.6664L9.4607 20.2008ZM16.9292 18.3336C16.9292 20.0595 15.5251 21.4636 13.7992 21.4636C12.0674 21.4636 10.6693 20.0631 10.6693 18.3348V13.7992C10.6693 13.2491 11.1153 12.8031 11.6654 12.8031C12.2155 12.8031 12.6615 13.2491 12.6615 13.7992V18.3348C12.6615 18.9647 13.1716 19.4714 13.7982 19.4714C14.4266 19.4714 14.937 18.961 14.937 18.3336V13.7992C14.937 13.2491 15.3829 12.8031 15.9331 12.8031C16.4832 12.8031 16.9291 13.2491 16.9291 13.7992V18.3336H16.9292ZM22.8681 14.7953H21.7303V20.2008C21.7303 20.7509 21.2843 21.1969 20.7342 21.1969C20.1841 21.1969 19.7381 20.7509 19.7381 20.2008V14.7953H18.6004C18.0503 14.7953 17.6043 14.3493 17.6043 13.7992C17.6043 13.2491 18.0503 12.8031 18.6004 12.8031H22.8681C23.4182 12.8031 23.8642 13.2491 23.8642 13.7992C23.8642 14.3493 23.4182 14.7953 22.8681 14.7953ZM30.7992 18.3336C30.7992 20.0792 29.3826 21.4636 27.6693 21.4636C25.9375 21.4636 24.5393 20.0631 24.5393 18.3348V15.6652C24.5393 13.9342 25.9406 12.5364 27.6682 12.5364H27.6693C29.4077 12.5364 30.7992 13.945 30.7992 15.6664V18.3336Z" fill="url(#paint0_linear_314_4296)"/>
<path id="Vector_3" d="M6.33305 14.5286C5.70219 14.5286 5.19531 15.0382 5.19531 15.6652V17.0708H7.47086V15.6664C7.47086 15.039 6.96039 14.5286 6.33305 14.5286Z" fill="#DBD6F0"/>
</g>
</g>
<defs>
<linearGradient id="paint0_linear_314_4296" x1="0.569951" y1="5.96254" x2="28.765" y2="30.4203" gradientUnits="userSpaceOnUse">
<stop stop-color="white"/>
<stop offset="1" stop-color="white" stop-opacity="0"/>
</linearGradient>
</defs>
</svg>
