<svg width="27" height="26" viewBox="0 0 27 26" fill="none" xmlns="http://www.w3.org/2000/svg">
<g id="Calendar" clip-path="url(#clip0_314_2851)">
<g id="Group 13354">
<path id="Vector" d="M0.570312 23.5651C0.570312 24.9076 1.68935 26 3.06462 26H23.5958C24.9711 26 26.0901 24.9076 26.0901 23.5651V8.36523H0.570312V23.5651ZM13.3304 10.453C16.7064 10.453 19.4529 13.1341 19.4529 16.4297C19.4529 19.7254 16.7064 22.4066 13.3304 22.4066C9.9544 22.4066 7.20772 19.7254 7.20772 16.4297C7.20772 13.1341 9.9544 10.453 13.3304 10.453Z" fill="url(#paint0_linear_314_2851)"/>
<path id="Vector_2" d="M26.0897 6.85944V4.53996C26.0897 3.19724 24.9709 2.10504 23.5954 2.10504H22.1892V3.45729C22.1892 3.87346 21.8436 4.21008 21.4179 4.21008C20.9917 4.21008 20.6467 3.87346 20.6467 3.45729V2.10504H19.1308V3.45729C19.1308 3.87346 18.786 4.21008 18.3597 4.21008C17.934 4.21008 17.5883 3.87346 17.5883 3.45729V2.10504H9.0721V3.45729C9.0721 3.87346 8.72665 4.21008 8.30094 4.21008C7.87463 4.21008 7.52959 3.87346 7.52959 3.45729V2.10504H6.0139V3.45729C6.0139 3.87346 5.66825 4.21008 5.24255 4.21008C4.81684 4.21008 4.47139 3.87346 4.47139 3.45729V2.10504H3.06462C1.68914 2.10504 0.570312 3.19724 0.570312 4.53996V6.85944H26.0897Z" fill="url(#paint1_linear_314_2851)"/>
<path id="Vector_3" d="M22.1909 0.752792C22.1909 0.337219 21.8453 0 21.4196 0C20.9935 0 20.6484 0.337219 20.6484 0.752792V2.10504H22.1909V0.752792Z" fill="url(#paint2_linear_314_2851)"/>
<path id="Vector_4" d="M19.1284 0.752792C19.1284 0.337219 18.7836 0 18.3573 0C17.9316 0 17.5859 0.337219 17.5859 0.752792V2.10504H19.1284V0.752792Z" fill="url(#paint3_linear_314_2851)"/>
<path id="Vector_5" d="M9.07376 0.752792C9.07376 0.337219 8.72832 0 8.30261 0C7.87629 0 7.53125 0.337219 7.53125 0.752792V2.10504H9.07376V0.752792Z" fill="url(#paint4_linear_314_2851)"/>
<path id="Vector_6" d="M6.01126 0.752792C6.01126 0.337219 5.66561 0 5.2399 0C4.81419 0 4.46875 0.337219 4.46875 0.752792V2.10504H6.01126V0.752792Z" fill="url(#paint5_linear_314_2851)"/>
<path id="Vector_7" d="M13.3302 20.9009C15.8556 20.9009 17.9102 18.8952 17.9102 16.4297C17.9102 13.9645 15.8556 11.9588 13.3302 11.9588C10.8046 11.9588 8.75 13.9645 8.75 16.4297C8.75 18.8952 10.8046 20.9009 13.3302 20.9009ZM10.6321 15.7261C10.9332 15.432 11.4215 15.432 11.7229 15.7261L12.7295 16.7088L14.9375 14.5534C15.2389 14.2594 15.7272 14.2594 16.0283 14.5534C16.3294 14.8474 16.3294 15.3241 16.0283 15.6182L13.2749 18.3061C13.1302 18.4473 12.9341 18.5264 12.7295 18.5264C12.5249 18.5264 12.3288 18.4473 12.1841 18.3061L10.6321 16.7908C10.3309 16.4968 10.3309 16.0201 10.6321 15.7261Z" fill="url(#paint6_linear_314_2851)"/>
</g>
</g>
<defs>
<linearGradient id="paint0_linear_314_2851" x1="0.998108" y1="8" x2="23.9981" y2="26" gradientUnits="userSpaceOnUse">
<stop stop-color="white"/>
<stop offset="1" stop-color="white" stop-opacity="0"/>
</linearGradient>
<linearGradient id="paint1_linear_314_2851" x1="0.998101" y1="2.00657" x2="4.93255" y2="13.4274" gradientUnits="userSpaceOnUse">
<stop stop-color="white"/>
<stop offset="1" stop-color="white" stop-opacity="0"/>
</linearGradient>
<linearGradient id="paint2_linear_314_2851" x1="20.6743" y1="-0.0435976" x2="22.6117" y2="0.724168" gradientUnits="userSpaceOnUse">
<stop stop-color="white"/>
<stop offset="1" stop-color="white" stop-opacity="0"/>
</linearGradient>
<linearGradient id="paint3_linear_314_2851" x1="17.6118" y1="-0.0435976" x2="19.5492" y2="0.724168" gradientUnits="userSpaceOnUse">
<stop stop-color="white"/>
<stop offset="1" stop-color="white" stop-opacity="0"/>
</linearGradient>
<linearGradient id="paint4_linear_314_2851" x1="7.55711" y1="-0.0435976" x2="9.49453" y2="0.724168" gradientUnits="userSpaceOnUse">
<stop stop-color="white"/>
<stop offset="1" stop-color="white" stop-opacity="0"/>
</linearGradient>
<linearGradient id="paint5_linear_314_2851" x1="4.49461" y1="-0.0435976" x2="6.43203" y2="0.724168" gradientUnits="userSpaceOnUse">
<stop stop-color="white"/>
<stop offset="1" stop-color="white" stop-opacity="0"/>
</linearGradient>
<linearGradient id="paint6_linear_314_2851" x1="8.90355" y1="11.7736" x2="19.0895" y2="17.4165" gradientUnits="userSpaceOnUse">
<stop stop-color="white"/>
<stop offset="1" stop-color="white" stop-opacity="0"/>
</linearGradient>
<clipPath id="clip0_314_2851">
<rect width="26.6341" height="26" fill="white"/>
</clipPath>
</defs>
</svg>
