<svg width="46" height="31" viewBox="0 0 46 31" fill="none" xmlns="http://www.w3.org/2000/svg">
<rect width="46" height="31" rx="6" fill="#251F67"/>
<path d="M14.6523 17.061H15.8711C15.8076 17.645 15.6405 18.1676 15.3696 18.6289C15.0988 19.0902 14.7158 19.4562 14.2207 19.7271C13.7256 19.9937 13.1077 20.127 12.3672 20.127C11.8255 20.127 11.3325 20.0254 10.8882 19.8223C10.4481 19.6191 10.0693 19.3314 9.75195 18.959C9.43457 18.5824 9.18913 18.1317 9.01562 17.6069C8.84635 17.078 8.76172 16.4897 8.76172 15.8423V14.9219C8.76172 14.2744 8.84635 13.6883 9.01562 13.1636C9.18913 12.6346 9.43669 12.1818 9.7583 11.8052C10.0841 11.4285 10.4756 11.1387 10.9326 10.9355C11.3896 10.7324 11.9038 10.6309 12.4751 10.6309C13.1733 10.6309 13.7637 10.762 14.2461 11.0244C14.7285 11.2868 15.103 11.6507 15.3696 12.1162C15.6405 12.5775 15.8076 13.1128 15.8711 13.7222H14.6523C14.5931 13.2905 14.4831 12.9202 14.3223 12.6113C14.1615 12.2982 13.9329 12.057 13.6367 11.8877C13.3405 11.7184 12.9533 11.6338 12.4751 11.6338C12.0646 11.6338 11.7028 11.7121 11.3896 11.8687C11.0807 12.0252 10.8205 12.2474 10.6089 12.5352C10.4015 12.8229 10.245 13.1678 10.1392 13.5698C10.0334 13.9718 9.98047 14.4183 9.98047 14.9092V15.8423C9.98047 16.2951 10.027 16.7204 10.1201 17.1182C10.2174 17.516 10.3634 17.8651 10.5581 18.1655C10.7528 18.466 11.0003 18.703 11.3008 18.8765C11.6012 19.0457 11.9567 19.1304 12.3672 19.1304C12.8877 19.1304 13.3024 19.0479 13.6113 18.8828C13.9202 18.7178 14.153 18.4808 14.3096 18.1719C14.4704 17.863 14.5846 17.4927 14.6523 17.061ZM18.6387 10.25V20H17.458V10.25H18.6387ZM23.374 20.127C22.8958 20.127 22.4621 20.0465 22.0728 19.8857C21.6877 19.7207 21.3555 19.4901 21.0762 19.1938C20.8011 18.8976 20.5895 18.5464 20.4414 18.1401C20.2933 17.7339 20.2192 17.2896 20.2192 16.8071V16.5405C20.2192 15.9819 20.3018 15.4847 20.4668 15.0488C20.6318 14.6087 20.8561 14.2363 21.1396 13.9316C21.4232 13.627 21.7448 13.3963 22.1045 13.2397C22.4642 13.0832 22.8366 13.0049 23.2217 13.0049C23.7126 13.0049 24.1357 13.0895 24.4912 13.2588C24.8509 13.4281 25.145 13.665 25.3735 13.9697C25.6021 14.2702 25.7713 14.6257 25.8813 15.0361C25.9914 15.4424 26.0464 15.8867 26.0464 16.3691V16.896H20.9175V15.9375H24.8721V15.8486C24.8551 15.5439 24.7917 15.2477 24.6816 14.96C24.5758 14.6722 24.4066 14.4352 24.1738 14.249C23.9411 14.0628 23.6237 13.9697 23.2217 13.9697C22.9551 13.9697 22.7096 14.0269 22.4854 14.1411C22.2611 14.2511 22.0685 14.4162 21.9077 14.6362C21.7469 14.8563 21.6221 15.125 21.5332 15.4424C21.4443 15.7598 21.3999 16.1258 21.3999 16.5405V16.8071C21.3999 17.133 21.4443 17.4398 21.5332 17.7275C21.6263 18.0111 21.7596 18.2607 21.9331 18.4766C22.1108 18.6924 22.3245 18.8617 22.5742 18.9844C22.8281 19.1071 23.1159 19.1685 23.4375 19.1685C23.8522 19.1685 24.2035 19.0838 24.4912 18.9146C24.779 18.7453 25.0308 18.5189 25.2466 18.2354L25.9575 18.8003C25.8094 19.0246 25.6211 19.2383 25.3926 19.4414C25.1641 19.6445 24.8826 19.8096 24.5483 19.9365C24.2183 20.0635 23.8268 20.127 23.374 20.127ZM31.4673 18.8257V15.29C31.4673 15.0192 31.4123 14.7843 31.3022 14.5854C31.1965 14.3823 31.0356 14.2257 30.8198 14.1157C30.604 14.0057 30.3374 13.9507 30.02 13.9507C29.7238 13.9507 29.4635 14.0015 29.2393 14.103C29.0192 14.2046 28.8457 14.3379 28.7188 14.5029C28.596 14.668 28.5347 14.8457 28.5347 15.0361H27.3604C27.3604 14.7907 27.4238 14.5474 27.5508 14.3062C27.6777 14.0649 27.8597 13.847 28.0967 13.6523C28.3379 13.4535 28.6257 13.2969 28.96 13.1826C29.2985 13.0641 29.6751 13.0049 30.0898 13.0049C30.5892 13.0049 31.0293 13.0895 31.4102 13.2588C31.7952 13.4281 32.0957 13.6841 32.3115 14.0269C32.5316 14.3654 32.6416 14.7907 32.6416 15.3027V18.502C32.6416 18.7305 32.6606 18.9738 32.6987 19.2319C32.741 19.4901 32.8024 19.7122 32.8828 19.8984V20H31.6577C31.5985 19.8646 31.5519 19.6847 31.5181 19.4604C31.4842 19.2319 31.4673 19.0203 31.4673 18.8257ZM31.6704 15.8359L31.6831 16.6611H30.4961C30.1618 16.6611 29.8634 16.6886 29.6011 16.7437C29.3387 16.7944 29.1187 16.8727 28.9409 16.9785C28.7632 17.0843 28.6278 17.2176 28.5347 17.3784C28.4416 17.535 28.395 17.7191 28.395 17.9307C28.395 18.1465 28.4437 18.3433 28.541 18.521C28.6383 18.6987 28.7843 18.8405 28.979 18.9463C29.1779 19.0479 29.4212 19.0986 29.709 19.0986C30.0687 19.0986 30.3861 19.0225 30.6611 18.8701C30.9362 18.7178 31.1541 18.5316 31.3149 18.3115C31.48 18.0915 31.5688 17.8778 31.5815 17.6704L32.083 18.2354C32.0534 18.4131 31.973 18.6099 31.8418 18.8257C31.7106 19.0415 31.535 19.2489 31.3149 19.4478C31.0991 19.6424 30.841 19.8053 30.5405 19.9365C30.2443 20.0635 29.91 20.127 29.5376 20.127C29.0721 20.127 28.6637 20.036 28.3125 19.854C27.9655 19.672 27.6947 19.4287 27.5 19.124C27.3096 18.8151 27.2144 18.4702 27.2144 18.0894C27.2144 17.7212 27.2863 17.3975 27.4302 17.1182C27.5741 16.8346 27.7814 16.5998 28.0522 16.4136C28.3231 16.2231 28.6489 16.0793 29.0298 15.9819C29.4106 15.8846 29.8359 15.8359 30.3057 15.8359H31.6704ZM35.6631 14.2109V20H34.4888V13.1318H35.6313L35.6631 14.2109ZM37.8086 13.0938L37.8022 14.1855C37.7049 14.1644 37.6118 14.1517 37.5229 14.1475C37.4383 14.139 37.341 14.1348 37.231 14.1348C36.9601 14.1348 36.721 14.1771 36.5137 14.2617C36.3063 14.3464 36.1307 14.4648 35.9868 14.6172C35.8429 14.7695 35.7287 14.9515 35.644 15.1631C35.5636 15.3704 35.5107 15.599 35.4854 15.8486L35.1553 16.0391C35.1553 15.6243 35.1955 15.235 35.2759 14.8711C35.3605 14.5072 35.4896 14.1855 35.6631 13.9062C35.8366 13.6227 36.0566 13.4027 36.3232 13.2461C36.5941 13.0853 36.9157 13.0049 37.2881 13.0049C37.3727 13.0049 37.4701 13.0155 37.5801 13.0366C37.6901 13.0535 37.7663 13.0726 37.8086 13.0938Z" fill="white"/>
</svg>
