<svg width="14" height="14" viewBox="0 0 14 14" fill="none" xmlns="http://www.w3.org/2000/svg">
<rect width="14" height="14" fill="#676565"/>
<path d="M-408 -667C-408 -668.105 -407.105 -669 -406 -669H1820C1821.1 -669 1822 -668.105 1822 -667V844C1822 845.105 1821.1 846 1820 846H-406C-407.105 846 -408 845.105 -408 844V-667Z" fill="#BCB6B6"/>
<path d="M-406 -668H1820V-670H-406V-668ZM1821 -667V844H1823V-667H1821ZM1820 845H-406V847H1820V845ZM-407 844V-667H-409V844H-407ZM-406 845C-406.552 845 -407 844.552 -407 844H-409C-409 845.657 -407.657 847 -406 847V845ZM1821 844C1821 844.552 1820.55 845 1820 845V847C1821.66 847 1823 845.657 1823 844H1821ZM1820 -668C1820.55 -668 1821 -667.552 1821 -667H1823C1823 -668.657 1821.66 -670 1820 -670V-668ZM-406 -670C-407.657 -670 -409 -668.657 -409 -667H-407C-407 -667.552 -406.552 -668 -406 -668V-670Z" fill="black" fill-opacity="0.1"/>
<g clip-path="url(#clip0_0_1)">
<rect width="375" height="812" transform="translate(-90 -404)" fill="white"/>
<mask id="path-3-inside-1_0_1" fill="white">
<path d="M-66 -191C-66 -202.046 -57.0457 -211 -46 -211H241C252.046 -211 261 -202.046 261 -191V6C261 17.0457 252.046 26 241 26H-46C-57.0457 26 -66 17.0457 -66 6V-191Z"/>
</mask>
<path d="M-66 -191C-66 -202.046 -57.0457 -211 -46 -211H241C252.046 -211 261 -202.046 261 -191V6C261 17.0457 252.046 26 241 26H-46C-57.0457 26 -66 17.0457 -66 6V-191Z" fill="#F5F4F9"/>
<path d="M-66 -211H261H-66ZM261 26H-66H261ZM-46 26C-58.1503 26 -68 16.1503 -68 4V-189C-68 -201.15 -58.1503 -211 -46 -211C-55.9411 -211 -64 -202.046 -64 -191V6C-64 17.0457 -55.9411 26 -46 26ZM261 -211V26V-211Z" fill="#2E1E88" mask="url(#path-3-inside-1_0_1)"/>
<g clip-path="url(#clip1_0_1)">
<path d="M0.585938 7.00016C0.585938 7.00016 2.91927 2.3335 7.0026 2.3335C11.0859 2.3335 13.4193 7.00016 13.4193 7.00016C13.4193 7.00016 11.0859 11.6668 7.0026 11.6668C2.91927 11.6668 0.585938 7.00016 0.585938 7.00016Z" stroke="#251F67" stroke-width="1.5" stroke-linecap="round" stroke-linejoin="round"/>
<path d="M7 8.75C7.9665 8.75 8.75 7.9665 8.75 7C8.75 6.0335 7.9665 5.25 7 5.25C6.0335 5.25 5.25 6.0335 5.25 7C5.25 7.9665 6.0335 8.75 7 8.75Z" stroke="#251F67" stroke-width="1.5" stroke-linecap="round" stroke-linejoin="round"/>
</g>
</g>
<defs>
<clipPath id="clip0_0_1">
<rect width="375" height="812" fill="white" transform="translate(-90 -404)"/>
</clipPath>
<clipPath id="clip1_0_1">
<rect width="14" height="14" fill="white"/>
</clipPath>
</defs>
</svg>
