<svg width="14" height="14" viewBox="0 0 14 14" fill="none" xmlns="http://www.w3.org/2000/svg">
<rect width="14" height="14" fill="#676565"/>
<path d="M-804 -693C-804 -694.105 -803.105 -695 -802 -695H1424C1425.1 -695 1426 -694.105 1426 -693V818C1426 819.105 1425.1 820 1424 820H-802C-803.105 820 -804 819.105 -804 818V-693Z" fill="#BCB6B6"/>
<path d="M-802 -694H1424V-696H-802V-694ZM1425 -693V818H1427V-693H1425ZM1424 819H-802V821H1424V819ZM-803 818V-693H-805V818H-803ZM-802 819C-802.552 819 -803 818.552 -803 818H-805C-805 819.657 -803.657 821 -802 821V819ZM1425 818C1425 818.552 1424.55 819 1424 819V821C1425.66 821 1427 819.657 1427 818H1425ZM1424 -694C1424.55 -694 1425 -693.552 1425 -693H1427C1427 -694.657 1425.66 -696 1424 -696V-694ZM-802 -696C-803.657 -696 -805 -694.657 -805 -693H-803C-803 -693.552 -802.552 -694 -802 -694V-696Z" fill="black" fill-opacity="0.1"/>
<g clip-path="url(#clip0_0_1)">
<rect width="375" height="812" transform="translate(-90 -430)" fill="white"/>
<mask id="path-3-inside-1_0_1" fill="white">
<path d="M-66 -217C-66 -228.046 -57.0457 -237 -46 -237H241C252.046 -237 261 -228.046 261 -217V6C261 17.0457 252.046 26 241 26H-46C-57.0457 26 -66 17.0457 -66 6V-217Z"/>
</mask>
<path d="M-66 -217C-66 -228.046 -57.0457 -237 -46 -237H241C252.046 -237 261 -228.046 261 -217V6C261 17.0457 252.046 26 241 26H-46C-57.0457 26 -66 17.0457 -66 6V-217Z" fill="#F5F4F9"/>
<path d="M-66 -237H261H-66ZM261 26H-66H261ZM-46 26C-58.1503 26 -68 16.1503 -68 4V-215C-68 -227.15 -58.1503 -237 -46 -237C-55.9411 -237 -64 -228.046 -64 -217V6C-64 17.0457 -55.9411 26 -46 26ZM261 -237V26V-237Z" fill="#2E1E88" mask="url(#path-3-inside-1_0_1)"/>
<g clip-path="url(#clip1_0_1)">
<path d="M10.4676 10.4652C9.47045 11.2253 8.25625 11.6463 7.0026 11.6668C2.91927 11.6668 0.585938 7.00018 0.585938 7.00018C1.31154 5.64795 2.31793 4.46653 3.5376 3.53518M5.7776 2.47351C6.17913 2.37952 6.59022 2.33254 7.0026 2.33351C11.0859 2.33351 13.4193 7.00018 13.4193 7.00018C13.0652 7.66261 12.6429 8.28627 12.1593 8.86101M8.23927 8.23684C8.07906 8.40878 7.88586 8.54668 7.67119 8.64233C7.45653 8.73798 7.2248 8.78941 6.98982 8.79356C6.75485 8.7977 6.52145 8.75448 6.30354 8.66646C6.08564 8.57845 5.88769 8.44744 5.72151 8.28127C5.55534 8.11509 5.42433 7.91714 5.33632 7.69924C5.2483 7.48133 5.20508 7.24793 5.20922 7.01296C5.21337 6.77798 5.2648 6.54625 5.36045 6.33159C5.4561 6.11692 5.594 5.92372 5.76594 5.76351" stroke="#251F67" stroke-width="1.5" stroke-linecap="round" stroke-linejoin="round"/>
<path d="M0.585938 0.583496L13.4193 13.4168" stroke="#251F67" stroke-width="1.5" stroke-linecap="round" stroke-linejoin="round"/>
</g>
<mask id="path-7-inside-2_0_1" fill="white">
<path d="M-66 -217C-66 -228.046 -57.0457 -237 -46 -237H241C252.046 -237 261 -228.046 261 -217V6C261 17.0457 252.046 26 241 26H-46C-57.0457 26 -66 17.0457 -66 6V-217Z"/>
</mask>
<path d="M-66 -217C-66 -228.046 -57.0457 -237 -46 -237H241C252.046 -237 261 -228.046 261 -217V6C261 17.0457 252.046 26 241 26H-46C-57.0457 26 -66 17.0457 -66 6V-217Z" fill="#F5F4F9"/>
<path d="M-66 -237H261H-66ZM261 26H-66H261ZM-46 26C-58.1503 26 -68 16.1503 -68 4V-215C-68 -227.15 -58.1503 -237 -46 -237C-55.9411 -237 -64 -228.046 -64 -217V6C-64 17.0457 -55.9411 26 -46 26ZM261 -237V26V-237Z" fill="#2E1E88" mask="url(#path-7-inside-2_0_1)"/>
<g clip-path="url(#clip2_0_1)">
<path d="M10.4676 10.4652C9.47045 11.2253 8.25625 11.6463 7.0026 11.6668C2.91927 11.6668 0.585938 7.00018 0.585938 7.00018C1.31154 5.64795 2.31793 4.46653 3.5376 3.53518M5.7776 2.47351C6.17913 2.37952 6.59022 2.33254 7.0026 2.33351C11.0859 2.33351 13.4193 7.00018 13.4193 7.00018C13.0652 7.66261 12.6429 8.28627 12.1593 8.86101M8.23927 8.23684C8.07906 8.40878 7.88586 8.54668 7.67119 8.64233C7.45653 8.73798 7.2248 8.78941 6.98982 8.79356C6.75485 8.7977 6.52145 8.75448 6.30354 8.66646C6.08564 8.57845 5.88769 8.44744 5.72151 8.28127C5.55534 8.11509 5.42433 7.91714 5.33632 7.69924C5.2483 7.48133 5.20508 7.24793 5.20922 7.01296C5.21337 6.77798 5.2648 6.54625 5.36045 6.33159C5.4561 6.11692 5.594 5.92372 5.76594 5.76351" stroke="#251F67" stroke-width="1.5" stroke-linecap="round" stroke-linejoin="round"/>
<path d="M0.585938 0.583496L13.4193 13.4168" stroke="#251F67" stroke-width="1.5" stroke-linecap="round" stroke-linejoin="round"/>
</g>
</g>
<defs>
<clipPath id="clip0_0_1">
<rect width="375" height="812" fill="white" transform="translate(-90 -430)"/>
</clipPath>
<clipPath id="clip1_0_1">
<rect width="14" height="14" fill="white"/>
</clipPath>
<clipPath id="clip2_0_1">
<rect width="14" height="14" fill="white"/>
</clipPath>
</defs>
</svg>
