<svg width="22" height="21" viewBox="0 0 22 21" fill="none" xmlns="http://www.w3.org/2000/svg">
<path d="M15.2499 15.7466V20.9998H18.7498C20.1995 20.9998 21.3748 19.8238 21.3748 18.3732V10.3874C21.375 9.93257 21.1983 9.49549 20.8822 9.16868L13.4465 1.1251C12.1345 -0.295321 9.92019 -0.382533 8.50065 0.930279C8.43322 0.992661 8.36825 1.05763 8.30595 1.1251L0.883384 9.16605C0.557641 9.49422 0.374877 9.93803 0.375 10.4006V18.3732C0.375 19.8238 1.55025 20.9998 2.99997 20.9998H6.49993V15.7466C6.51629 13.3591 8.44265 11.4095 10.7685 11.3534C13.1722 11.2954 15.2315 13.2782 15.2499 15.7466Z" fill="white"/>
</svg>
