<svg width="111" height="130" viewBox="0 0 111 130" fill="none" xmlns="http://www.w3.org/2000/svg">
<path d="M8.23725 108.314C8.23725 108.036 8.19419 107.787 8.10808 107.569C8.02859 107.344 7.87954 107.141 7.66094 106.963C7.44897 106.777 7.14756 106.598 6.75673 106.426C6.37253 106.247 5.87571 106.062 5.26628 105.87C4.5906 105.658 3.9613 105.419 3.37837 105.154C2.79543 104.889 2.28205 104.581 1.83823 104.23C1.40103 103.879 1.05988 103.475 0.814783 103.018C0.569685 102.554 0.447137 102.018 0.447137 101.408C0.447137 100.812 0.572998 100.269 0.824719 99.7786C1.08306 99.2884 1.4474 98.8678 1.91772 98.5167C2.38804 98.159 2.94117 97.8841 3.57709 97.692C4.21965 97.4999 4.92844 97.4038 5.70348 97.4038C6.77661 97.4038 7.704 97.5993 8.48566 97.9901C9.27395 98.3809 9.88338 98.9109 10.314 99.5799C10.7445 100.249 10.9598 101.001 10.9598 101.835H8.23725C8.23725 101.385 8.1412 100.988 7.9491 100.643C7.76362 100.299 7.47878 100.027 7.09457 99.8283C6.71699 99.6296 6.24004 99.5302 5.66373 99.5302C5.1073 99.5302 4.6436 99.613 4.27264 99.7786C3.90831 99.9442 3.6334 100.169 3.44792 100.454C3.26907 100.739 3.17964 101.057 3.17964 101.408C3.17964 101.673 3.24257 101.912 3.36843 102.124C3.49429 102.329 3.68308 102.524 3.9348 102.71C4.18652 102.889 4.49786 103.058 4.86882 103.217C5.2464 103.369 5.68361 103.521 6.18042 103.674C6.97533 103.912 7.67088 104.177 8.26706 104.469C8.86987 104.76 9.37 105.091 9.76745 105.462C10.1715 105.833 10.4729 106.251 10.6717 106.714C10.877 107.178 10.9797 107.705 10.9797 108.294C10.9797 108.917 10.8571 109.473 10.612 109.963C10.3669 110.454 10.0159 110.871 9.55879 111.215C9.10172 111.56 8.5519 111.822 7.90935 112C7.27342 112.179 6.56132 112.269 5.77303 112.269C5.07086 112.269 4.37532 112.176 3.68639 111.99C3.0041 111.798 2.38473 111.513 1.82829 111.136C1.27186 110.752 0.828031 110.268 0.496819 109.685C0.165606 109.096 0 108.407 0 107.618H2.74244C2.74244 108.076 2.81531 108.466 2.96104 108.791C3.1134 109.109 3.32537 109.371 3.59697 109.576C3.87519 109.775 4.19977 109.92 4.57073 110.013C4.94169 110.106 5.34246 110.152 5.77303 110.152C6.32947 110.152 6.78654 110.076 7.14425 109.924C7.50859 109.765 7.78018 109.546 7.95903 109.268C8.14451 108.99 8.23725 108.672 8.23725 108.314Z" fill="white"/>
<path d="M15.5107 103.386V116.203H12.8775V101.319H15.3119L15.5107 103.386ZM22.4165 106.585V106.794C22.4165 107.575 22.3237 108.301 22.1382 108.97C21.9594 109.632 21.6944 110.212 21.3433 110.709C20.9922 111.199 20.555 111.583 20.0317 111.861C19.515 112.133 18.9189 112.269 18.2432 112.269C17.5808 112.269 17.0044 112.143 16.5143 111.891C16.0241 111.633 15.61 111.268 15.2722 110.798C14.9344 110.328 14.6628 109.781 14.4574 109.159C14.2587 108.529 14.1096 107.844 14.0103 107.102V106.436C14.1096 105.648 14.2587 104.932 14.4574 104.29C14.6628 103.641 14.9344 103.081 15.2722 102.611C15.61 102.134 16.0207 101.766 16.5043 101.508C16.9945 101.249 17.5675 101.12 18.2233 101.12C18.9056 101.12 19.5051 101.249 20.0218 101.508C20.5451 101.766 20.9856 102.137 21.3433 102.62C21.701 103.104 21.9693 103.68 22.1482 104.349C22.327 105.018 22.4165 105.764 22.4165 106.585ZM19.7833 106.794V106.585C19.7833 106.108 19.7403 105.668 19.6541 105.264C19.568 104.853 19.4355 104.495 19.2567 104.19C19.0778 103.879 18.846 103.637 18.5611 103.465C18.2763 103.293 17.9318 103.207 17.5278 103.207C17.1237 103.207 16.7759 103.273 16.4844 103.405C16.193 103.538 15.9545 103.727 15.769 103.972C15.5835 104.217 15.4378 104.508 15.3318 104.846C15.2325 105.177 15.1662 105.545 15.1331 105.949V107.599C15.1927 108.089 15.3086 108.529 15.4809 108.92C15.6531 109.311 15.9048 109.622 16.236 109.854C16.5739 110.086 17.0111 110.202 17.5476 110.202C17.9517 110.202 18.2962 110.112 18.581 109.934C18.8659 109.755 19.0977 109.51 19.2766 109.198C19.4554 108.88 19.5846 108.516 19.6641 108.105C19.7436 107.695 19.7833 107.257 19.7833 106.794Z" fill="white"/>
<path d="M29.1633 112.269C28.3485 112.269 27.6165 112.136 26.9673 111.871C26.3181 111.606 25.765 111.239 25.3079 110.768C24.8575 110.291 24.5097 109.738 24.2646 109.109C24.0261 108.473 23.9069 107.791 23.9069 107.062V106.665C23.9069 105.837 24.0261 105.085 24.2646 104.409C24.5031 103.727 24.8409 103.14 25.2781 102.65C25.7153 102.16 26.2386 101.782 26.8481 101.518C27.4575 101.253 28.1299 101.12 28.8652 101.12C29.627 101.12 30.2993 101.249 30.8822 101.508C31.4652 101.759 31.9521 102.117 32.3429 102.581C32.7337 103.044 33.0285 103.601 33.2272 104.25C33.426 104.893 33.5253 105.605 33.5253 106.386V107.489H25.0993V105.681H30.9419V105.482C30.9286 105.065 30.8491 104.684 30.7034 104.339C30.5577 103.988 30.3324 103.71 30.0277 103.505C29.723 103.293 29.3289 103.187 28.8453 103.187C28.4545 103.187 28.1133 103.273 27.8218 103.445C27.537 103.611 27.2985 103.849 27.1064 104.161C26.9209 104.465 26.7818 104.83 26.6891 105.254C26.5964 105.678 26.55 106.148 26.55 106.665V107.062C26.55 107.512 26.6096 107.93 26.7288 108.314C26.8547 108.698 27.0369 109.033 27.2753 109.318C27.5204 109.596 27.8119 109.814 28.1497 109.973C28.4942 110.126 28.885 110.202 29.3222 110.202C29.872 110.202 30.3689 110.096 30.8127 109.884C31.2631 109.665 31.654 109.344 31.9852 108.92L33.3067 110.291C33.0815 110.623 32.7768 110.94 32.3926 111.245C32.015 111.55 31.5579 111.798 31.0214 111.99C30.4848 112.176 29.8654 112.269 29.1633 112.269Z" fill="white"/>
<path d="M41.2061 109.785V104.826C41.2061 104.462 41.1432 104.147 41.0173 103.882C40.8915 103.617 40.6994 103.412 40.441 103.266C40.1827 103.121 39.8548 103.048 39.4573 103.048C39.1063 103.048 38.7982 103.107 38.5333 103.227C38.2749 103.346 38.0762 103.515 37.9371 103.733C37.798 103.945 37.7284 104.19 37.7284 104.469H35.0953C35.0953 104.025 35.2013 103.604 35.4132 103.207C35.6252 102.803 35.9266 102.445 36.3174 102.134C36.7149 101.816 37.1885 101.567 37.7383 101.388C38.2948 101.209 38.9175 101.12 39.6064 101.12C40.4212 101.12 41.1465 101.259 41.7824 101.537C42.425 101.809 42.9284 102.22 43.2928 102.769C43.6637 103.319 43.8492 104.012 43.8492 104.846V109.536C43.8492 110.073 43.8823 110.533 43.9486 110.917C44.0214 111.295 44.1274 111.623 44.2665 111.901V112.07H41.5937C41.4678 111.798 41.3717 111.454 41.3055 111.037C41.2393 110.613 41.2061 110.195 41.2061 109.785ZM41.5738 105.522L41.5937 107.082H39.9343C39.5236 107.082 39.1626 107.125 38.8512 107.211C38.5399 107.291 38.2848 107.41 38.0861 107.569C37.8874 107.721 37.7383 107.907 37.639 108.125C37.5396 108.337 37.4899 108.579 37.4899 108.851C37.4899 109.116 37.5496 109.354 37.6688 109.566C37.7946 109.778 37.9735 109.947 38.2054 110.073C38.4438 110.192 38.722 110.252 39.04 110.252C39.5037 110.252 39.9078 110.159 40.2522 109.973C40.5967 109.781 40.865 109.549 41.0571 109.278C41.2492 109.006 41.3519 108.748 41.3651 108.503L42.1203 109.636C42.0275 109.907 41.8884 110.195 41.703 110.5C41.5175 110.805 41.279 111.09 40.9875 111.355C40.6961 111.619 40.345 111.838 39.9343 112.01C39.5236 112.183 39.0466 112.269 38.5034 112.269C37.8079 112.269 37.1852 112.13 36.6354 111.851C36.0856 111.573 35.6517 111.192 35.3337 110.709C35.0158 110.225 34.8568 109.675 34.8568 109.059C34.8568 108.49 34.9628 107.986 35.1748 107.549C35.3867 107.112 35.7014 106.744 36.1187 106.446C36.536 106.141 37.0527 105.913 37.6688 105.76C38.2915 105.601 39.0036 105.522 39.8051 105.522H41.5738Z" fill="white"/>
<path d="M48.8373 96.7977V112.07H46.2141V96.7977H48.8373ZM55.5741 101.319L50.8941 106.575L48.3603 109.149L47.5257 107.112L49.4831 104.647L52.4044 101.319H55.5741ZM52.8913 112.07L49.5626 107.062L51.3114 105.363L55.9318 112.07H52.8913Z" fill="white"/>
<path d="M71.4127 109.924V112.07H64.1393V109.924H71.4127ZM64.964 97.6026V112.07H62.2315V97.6026H64.964Z" fill="white"/>
<path d="M72.5753 106.804V106.595C72.5753 105.807 72.6879 105.081 72.9131 104.419C73.1383 103.75 73.4662 103.17 73.8968 102.68C74.3274 102.19 74.854 101.809 75.4767 101.537C76.0994 101.259 76.8082 101.12 77.6031 101.12C78.4112 101.12 79.1266 101.259 79.7493 101.537C80.3786 101.809 80.9086 102.19 81.3391 102.68C81.7697 103.17 82.0976 103.75 82.3228 104.419C82.5481 105.081 82.6607 105.807 82.6607 106.595V106.804C82.6607 107.585 82.5481 108.311 82.3228 108.98C82.0976 109.642 81.7697 110.222 81.3391 110.719C80.9086 111.209 80.3819 111.59 79.7593 111.861C79.1366 112.133 78.4245 112.269 77.6229 112.269C76.828 112.269 76.1159 112.133 75.4866 111.861C74.8573 111.59 74.3274 111.209 73.8968 110.719C73.4662 110.222 73.1383 109.642 72.9131 108.98C72.6879 108.311 72.5753 107.585 72.5753 106.804ZM75.1985 106.595V106.804C75.1985 107.274 75.2448 107.714 75.3376 108.125C75.4303 108.536 75.5727 108.897 75.7648 109.208C75.9569 109.52 76.2054 109.765 76.5101 109.944C76.8214 110.116 77.1924 110.202 77.6229 110.202C78.0469 110.202 78.4112 110.116 78.7159 109.944C79.0207 109.765 79.2691 109.52 79.4612 109.208C79.6599 108.897 79.8056 108.536 79.8984 108.125C79.9911 107.714 80.0375 107.274 80.0375 106.804V106.595C80.0375 106.131 79.9911 105.697 79.8984 105.293C79.8056 104.883 79.6599 104.522 79.4612 104.21C79.2691 103.892 79.0173 103.644 78.706 103.465C78.4013 103.28 78.0336 103.187 77.6031 103.187C77.1791 103.187 76.8148 103.28 76.5101 103.465C76.2054 103.644 75.9569 103.892 75.7648 104.21C75.5727 104.522 75.4303 104.883 75.3376 105.293C75.2448 105.697 75.1985 106.131 75.1985 106.595Z" fill="white"/>
<path d="M91.4047 101.319H93.7894V111.742C93.7894 112.716 93.5774 113.541 93.1535 114.216C92.7362 114.898 92.1499 115.415 91.3948 115.766C90.6396 116.124 89.7619 116.303 88.7616 116.303C88.331 116.303 87.864 116.243 87.3606 116.124C86.8638 116.005 86.3835 115.816 85.9198 115.558C85.4627 115.306 85.0818 114.978 84.7771 114.574L85.9596 113.024C86.3173 113.441 86.7213 113.756 87.1718 113.968C87.6222 114.186 88.1091 114.296 88.6324 114.296C89.1624 114.296 89.6128 114.196 89.9838 113.998C90.3614 113.805 90.6495 113.521 90.8483 113.143C91.0536 112.772 91.1563 112.315 91.1563 111.772V103.773L91.4047 101.319ZM84.1412 106.824V106.615C84.1412 105.793 84.2406 105.048 84.4393 104.379C84.638 103.704 84.9229 103.124 85.2938 102.64C85.6714 102.157 86.1252 101.782 86.6551 101.518C87.1917 101.253 87.7945 101.12 88.4635 101.12C89.1723 101.12 89.7685 101.249 90.2521 101.508C90.7423 101.766 91.1463 102.134 91.4643 102.611C91.7889 103.087 92.0406 103.654 92.2195 104.31C92.405 104.959 92.5474 105.674 92.6467 106.456V107.022C92.554 107.784 92.405 108.483 92.1996 109.119C92.0009 109.755 91.7359 110.311 91.4047 110.788C91.0735 111.258 90.6628 111.623 90.1726 111.881C89.6824 112.139 89.1061 112.269 88.4436 112.269C87.7812 112.269 87.185 112.133 86.6551 111.861C86.1252 111.59 85.6714 111.209 85.2938 110.719C84.9229 110.228 84.638 109.652 84.4393 108.99C84.2406 108.327 84.1412 107.605 84.1412 106.824ZM86.7644 106.615V106.824C86.7644 107.287 86.8108 107.721 86.9035 108.125C86.9963 108.529 87.1387 108.887 87.3308 109.198C87.5229 109.503 87.7647 109.742 88.0561 109.914C88.3476 110.086 88.6954 110.172 89.0994 110.172C89.6426 110.172 90.0865 110.059 90.4309 109.834C90.782 109.602 91.047 109.288 91.2258 108.89C91.4113 108.486 91.5305 108.032 91.5835 107.529V105.969C91.5504 105.572 91.4776 105.204 91.3649 104.866C91.259 104.528 91.1099 104.237 90.9178 103.992C90.7257 103.747 90.4806 103.554 90.1825 103.415C89.8844 103.276 89.53 103.207 89.1193 103.207C88.7219 103.207 88.3741 103.296 88.076 103.475C87.7779 103.647 87.5328 103.889 87.3407 104.2C87.1486 104.512 87.0029 104.873 86.9035 105.283C86.8108 105.694 86.7644 106.138 86.7644 106.615Z" fill="white"/>
<path d="M98.9365 101.319V112.07H96.3033V101.319H98.9365ZM96.1245 98.5068C96.1245 98.116 96.257 97.7914 96.5219 97.533C96.7935 97.2747 97.1579 97.1455 97.6149 97.1455C98.072 97.1455 98.433 97.2747 98.698 97.533C98.9696 97.7914 99.1054 98.116 99.1054 98.5068C99.1054 98.891 98.9696 99.2123 98.698 99.4706C98.433 99.729 98.072 99.8581 97.6149 99.8581C97.1579 99.8581 96.7935 99.729 96.5219 99.4706C96.257 99.2123 96.1245 98.891 96.1245 98.5068Z" fill="white"/>
<path d="M105.852 110.202C106.223 110.202 106.554 110.129 106.846 109.983C107.137 109.838 107.369 109.632 107.541 109.367C107.72 109.102 107.816 108.794 107.83 108.443H110.304C110.29 109.172 110.085 109.824 109.688 110.401C109.29 110.977 108.76 111.434 108.098 111.772C107.442 112.103 106.707 112.269 105.892 112.269C105.064 112.269 104.342 112.13 103.726 111.851C103.11 111.573 102.596 111.186 102.186 110.689C101.782 110.192 101.477 109.616 101.272 108.96C101.073 108.304 100.973 107.602 100.973 106.853V106.535C100.973 105.787 101.073 105.085 101.272 104.429C101.477 103.773 101.782 103.197 102.186 102.7C102.596 102.203 103.11 101.816 103.726 101.537C104.342 101.259 105.061 101.12 105.882 101.12C106.75 101.12 107.512 101.289 108.167 101.627C108.83 101.965 109.346 102.442 109.717 103.058C110.095 103.674 110.29 104.399 110.304 105.234H107.83C107.816 104.85 107.73 104.505 107.571 104.2C107.412 103.896 107.187 103.651 106.895 103.465C106.604 103.28 106.25 103.187 105.832 103.187C105.388 103.187 105.018 103.28 104.719 103.465C104.428 103.651 104.199 103.906 104.034 104.23C103.875 104.548 103.762 104.906 103.696 105.303C103.636 105.694 103.607 106.105 103.607 106.535V106.853C103.607 107.291 103.636 107.708 103.696 108.105C103.762 108.503 103.875 108.86 104.034 109.178C104.199 109.49 104.428 109.738 104.719 109.924C105.018 110.109 105.395 110.202 105.852 110.202Z" fill="white"/>
<path d="M39.4499 126.503H37.0962V125.268H39.4499C39.8598 125.268 40.191 125.201 40.4435 125.069C40.6961 124.936 40.8803 124.754 40.9962 124.522C41.1163 124.286 41.1763 124.017 41.1763 123.715C41.1763 123.429 41.1163 123.162 40.9962 122.914C40.8803 122.661 40.6961 122.458 40.4435 122.305C40.191 122.152 39.8598 122.075 39.4499 122.075H37.5744V129.876H36.0156V120.833H39.4499C40.1496 120.833 40.7437 120.958 41.2322 121.206C41.7249 121.45 42.0996 121.79 42.3563 122.225C42.613 122.655 42.7413 123.148 42.7413 123.703C42.7413 124.286 42.613 124.787 42.3563 125.205C42.0996 125.624 41.7249 125.944 41.2322 126.168C40.7437 126.392 40.1496 126.503 39.4499 126.503Z" fill="#9692C4"/>
<path d="M54.7403 125.106V125.603C54.7403 126.286 54.6513 126.899 54.4733 127.441C54.2952 127.983 54.0406 128.445 53.7094 128.826C53.3823 129.207 52.989 129.499 52.5295 129.702C52.0699 129.9 51.5607 130 51.0017 130C50.447 130 49.9398 129.9 49.4802 129.702C49.0248 129.499 48.6294 129.207 48.2941 128.826C47.9587 128.445 47.6979 127.983 47.5116 127.441C47.3294 126.899 47.2383 126.286 47.2383 125.603V125.106C47.2383 124.423 47.3294 123.812 47.5116 123.274C47.6938 122.732 47.9504 122.27 48.2817 121.889C48.617 121.504 49.0124 121.212 49.4678 121.014C49.9274 120.811 50.4345 120.709 50.9893 120.709C51.5482 120.709 52.0575 120.811 52.517 121.014C52.9766 121.212 53.372 121.504 53.7032 121.889C54.0344 122.27 54.289 122.732 54.4671 123.274C54.6492 123.812 54.7403 124.423 54.7403 125.106ZM53.1815 125.603V125.094C53.1815 124.589 53.1319 124.143 53.0325 123.758C52.9373 123.369 52.7944 123.044 52.604 122.783C52.4177 122.518 52.1879 122.32 51.9146 122.187C51.6414 122.051 51.333 121.982 50.9893 121.982C50.6457 121.982 50.3393 122.051 50.0702 122.187C49.8011 122.32 49.5713 122.518 49.3809 122.783C49.1946 123.044 49.0517 123.369 48.9524 123.758C48.853 124.143 48.8033 124.589 48.8033 125.094V125.603C48.8033 126.108 48.853 126.555 48.9524 126.944C49.0517 127.333 49.1966 127.663 49.3871 127.932C49.5817 128.197 49.8135 128.397 50.0826 128.534C50.3517 128.667 50.6581 128.733 51.0017 128.733C51.3495 128.733 51.658 128.667 51.9271 128.534C52.1962 128.397 52.4239 128.197 52.6102 127.932C52.7965 127.663 52.9373 127.333 53.0325 126.944C53.1319 126.555 53.1815 126.108 53.1815 125.603Z" fill="#9692C4"/>
<path d="M65.3544 128.64V129.876H60.8147V128.64H65.3544ZM61.2495 120.833V129.876H59.6907V120.833H61.2495Z" fill="#9692C4"/>
<path d="M75.6146 128.64V129.876H71.0749V128.64H75.6146ZM71.5096 120.833V129.876H69.9508V120.833H71.5096Z" fill="#9692C4"/>
<g clip-path="url(#clip0_314_2419)">
<path d="M78.1077 60.2161C73.0447 79.2665 53.5571 90.5693 34.6233 85.4751C15.6894 80.3808 4.45574 60.7733 9.51882 41.7229C14.6083 22.6726 34.0695 11.3697 53.0033 16.464C71.9371 21.5848 83.1708 41.1658 78.1077 60.2161Z" fill="#646092"/>
<path d="M20.009 75.6581L1.52344 75.552L10.6475 59.3937L20.009 75.6581Z" fill="#646092"/>
<path d="M30.8469 45.1987C35.91 64.2491 55.3976 75.5519 74.3314 70.4577C93.2652 65.3369 104.499 45.7559 99.4359 26.7055C94.3464 7.65516 74.8852 -3.6477 55.9514 1.44655C37.0176 6.56733 25.7839 26.1483 30.8469 45.1987Z" fill="#646092"/>
<path d="M88.9453 60.6406L107.431 60.5345L98.3067 44.3497L88.9453 60.6406Z" fill="#656193"/>
<path d="M73.438 70.67C75.4949 67.5391 77.0771 64.0368 78.1055 60.2161C83.1686 41.1658 71.9349 21.5848 53.0011 16.464C47.0941 14.872 41.1081 14.8986 35.544 16.2252C30.1381 24.4768 28.1076 34.9041 30.8501 45.1987C35.8341 63.9572 54.7679 75.1805 73.438 70.67Z" fill="white"/>
<path d="M47.2547 43.4473C47.2547 45.3576 45.7252 46.923 43.8266 46.923C41.9279 46.923 40.3984 45.3576 40.3984 43.4473C40.3984 41.5635 41.9279 39.998 43.8266 39.998C45.7252 39.998 47.2547 41.5635 47.2547 43.4473Z" fill="#241E66"/>
<path d="M57.9109 43.4473C57.9109 45.3576 56.3815 46.923 54.4828 46.923C52.5842 46.923 51.0547 45.3576 51.0547 43.4473C51.0547 41.5635 52.5842 39.998 54.4828 39.998C56.3815 39.998 57.9109 41.5635 57.9109 43.4473Z" fill="#241E66"/>
<path d="M68.5594 43.4473C68.5594 45.3576 67.0299 46.923 65.1313 46.923C63.2326 46.923 61.7031 45.3576 61.7031 43.4473C61.7031 41.5635 63.2326 39.998 65.1313 39.998C67.0299 39.998 68.5594 41.5635 68.5594 43.4473Z" fill="#241E66"/>
</g>
<defs>
<clipPath id="clip0_314_2419">
<rect width="105.988" height="86.4862" fill="white" transform="translate(1.65625 0.146484)"/>
</clipPath>
</defs>
</svg>
