<svg width="111" height="131" viewBox="0 0 111 131" fill="none" xmlns="http://www.w3.org/2000/svg">
<path d="M8.23725 109.314C8.23725 109.036 8.19419 108.787 8.10808 108.569C8.02859 108.344 7.87954 108.141 7.66094 107.963C7.44897 107.777 7.14756 107.598 6.75673 107.426C6.37253 107.247 5.87571 107.062 5.26628 106.87C4.5906 106.658 3.9613 106.419 3.37837 106.154C2.79543 105.889 2.28205 105.581 1.83823 105.23C1.40103 104.879 1.05988 104.475 0.814783 104.018C0.569685 103.554 0.447137 103.018 0.447137 102.408C0.447137 101.812 0.572998 101.269 0.824719 100.779C1.08306 100.288 1.4474 99.8678 1.91772 99.5167C2.38804 99.159 2.94117 98.8841 3.57709 98.692C4.21965 98.4999 4.92844 98.4038 5.70348 98.4038C6.77661 98.4038 7.704 98.5993 8.48566 98.9901C9.27395 99.3809 9.88338 99.9109 10.314 100.58C10.7445 101.249 10.9598 102.001 10.9598 102.835H8.23725C8.23725 102.385 8.1412 101.988 7.9491 101.643C7.76362 101.299 7.47878 101.027 7.09457 100.828C6.71699 100.63 6.24004 100.53 5.66373 100.53C5.1073 100.53 4.6436 100.613 4.27264 100.779C3.90831 100.944 3.6334 101.169 3.44792 101.454C3.26907 101.739 3.17964 102.057 3.17964 102.408C3.17964 102.673 3.24257 102.912 3.36843 103.124C3.49429 103.329 3.68308 103.524 3.9348 103.71C4.18652 103.889 4.49786 104.058 4.86882 104.217C5.2464 104.369 5.68361 104.521 6.18042 104.674C6.97533 104.912 7.67088 105.177 8.26706 105.469C8.86987 105.76 9.37 106.091 9.76745 106.462C10.1715 106.833 10.4729 107.251 10.6717 107.714C10.877 108.178 10.9797 108.705 10.9797 109.294C10.9797 109.917 10.8571 110.473 10.612 110.963C10.3669 111.454 10.0159 111.871 9.55879 112.215C9.10172 112.56 8.5519 112.822 7.90935 113C7.27342 113.179 6.56132 113.269 5.77303 113.269C5.07086 113.269 4.37532 113.176 3.68639 112.99C3.0041 112.798 2.38473 112.513 1.82829 112.136C1.27186 111.752 0.828031 111.268 0.496819 110.685C0.165606 110.096 0 109.407 0 108.618H2.74244C2.74244 109.076 2.81531 109.466 2.96104 109.791C3.1134 110.109 3.32537 110.371 3.59697 110.576C3.87519 110.775 4.19977 110.92 4.57073 111.013C4.94169 111.106 5.34246 111.152 5.77303 111.152C6.32947 111.152 6.78654 111.076 7.14425 110.924C7.50859 110.765 7.78018 110.546 7.95903 110.268C8.14451 109.99 8.23725 109.672 8.23725 109.314Z" fill="white"/>
<path d="M15.5107 104.386V117.203H12.8775V102.319H15.3119L15.5107 104.386ZM22.4165 107.585V107.794C22.4165 108.575 22.3237 109.301 22.1382 109.97C21.9594 110.632 21.6944 111.212 21.3433 111.709C20.9922 112.199 20.555 112.583 20.0317 112.861C19.515 113.133 18.9189 113.269 18.2432 113.269C17.5808 113.269 17.0044 113.143 16.5143 112.891C16.0241 112.633 15.61 112.268 15.2722 111.798C14.9344 111.328 14.6628 110.781 14.4574 110.159C14.2587 109.529 14.1096 108.844 14.0103 108.102V107.436C14.1096 106.648 14.2587 105.932 14.4574 105.29C14.6628 104.641 14.9344 104.081 15.2722 103.611C15.61 103.134 16.0207 102.766 16.5043 102.508C16.9945 102.249 17.5675 102.12 18.2233 102.12C18.9056 102.12 19.5051 102.249 20.0218 102.508C20.5451 102.766 20.9856 103.137 21.3433 103.62C21.701 104.104 21.9693 104.68 22.1482 105.349C22.327 106.018 22.4165 106.764 22.4165 107.585ZM19.7833 107.794V107.585C19.7833 107.108 19.7403 106.668 19.6541 106.264C19.568 105.853 19.4355 105.495 19.2567 105.19C19.0778 104.879 18.846 104.637 18.5611 104.465C18.2763 104.293 17.9318 104.207 17.5278 104.207C17.1237 104.207 16.7759 104.273 16.4844 104.405C16.193 104.538 15.9545 104.727 15.769 104.972C15.5835 105.217 15.4378 105.508 15.3318 105.846C15.2325 106.177 15.1662 106.545 15.1331 106.949V108.599C15.1927 109.089 15.3086 109.529 15.4809 109.92C15.6531 110.311 15.9048 110.622 16.236 110.854C16.5739 111.086 17.0111 111.202 17.5476 111.202C17.9517 111.202 18.2962 111.112 18.581 110.934C18.8659 110.755 19.0977 110.51 19.2766 110.198C19.4554 109.88 19.5846 109.516 19.6641 109.105C19.7436 108.695 19.7833 108.257 19.7833 107.794Z" fill="white"/>
<path d="M29.1633 113.269C28.3485 113.269 27.6165 113.136 26.9673 112.871C26.3181 112.606 25.765 112.239 25.3079 111.768C24.8575 111.291 24.5097 110.738 24.2646 110.109C24.0261 109.473 23.9069 108.791 23.9069 108.062V107.665C23.9069 106.837 24.0261 106.085 24.2646 105.409C24.5031 104.727 24.8409 104.14 25.2781 103.65C25.7153 103.16 26.2386 102.782 26.8481 102.518C27.4575 102.253 28.1299 102.12 28.8652 102.12C29.627 102.12 30.2993 102.249 30.8822 102.508C31.4652 102.759 31.9521 103.117 32.3429 103.581C32.7337 104.044 33.0285 104.601 33.2272 105.25C33.426 105.893 33.5253 106.605 33.5253 107.386V108.489H25.0993V106.681H30.9419V106.482C30.9286 106.065 30.8491 105.684 30.7034 105.339C30.5577 104.988 30.3324 104.71 30.0277 104.505C29.723 104.293 29.3289 104.187 28.8453 104.187C28.4545 104.187 28.1133 104.273 27.8218 104.445C27.537 104.611 27.2985 104.849 27.1064 105.161C26.9209 105.465 26.7818 105.83 26.6891 106.254C26.5964 106.678 26.55 107.148 26.55 107.665V108.062C26.55 108.512 26.6096 108.93 26.7288 109.314C26.8547 109.698 27.0369 110.033 27.2753 110.318C27.5204 110.596 27.8119 110.814 28.1497 110.973C28.4942 111.126 28.885 111.202 29.3222 111.202C29.872 111.202 30.3689 111.096 30.8127 110.884C31.2631 110.665 31.654 110.344 31.9852 109.92L33.3067 111.291C33.0815 111.623 32.7768 111.94 32.3926 112.245C32.015 112.55 31.5579 112.798 31.0214 112.99C30.4848 113.176 29.8654 113.269 29.1633 113.269Z" fill="white"/>
<path d="M41.2061 110.785V105.826C41.2061 105.462 41.1432 105.147 41.0173 104.882C40.8915 104.617 40.6994 104.412 40.441 104.266C40.1827 104.121 39.8548 104.048 39.4573 104.048C39.1063 104.048 38.7982 104.107 38.5333 104.227C38.2749 104.346 38.0762 104.515 37.9371 104.733C37.798 104.945 37.7284 105.19 37.7284 105.469H35.0953C35.0953 105.025 35.2013 104.604 35.4132 104.207C35.6252 103.803 35.9266 103.445 36.3174 103.134C36.7149 102.816 37.1885 102.567 37.7383 102.388C38.2948 102.209 38.9175 102.12 39.6064 102.12C40.4212 102.12 41.1465 102.259 41.7824 102.537C42.425 102.809 42.9284 103.22 43.2928 103.769C43.6637 104.319 43.8492 105.012 43.8492 105.846V110.536C43.8492 111.073 43.8823 111.533 43.9486 111.917C44.0214 112.295 44.1274 112.623 44.2665 112.901V113.07H41.5937C41.4678 112.798 41.3717 112.454 41.3055 112.037C41.2393 111.613 41.2061 111.195 41.2061 110.785ZM41.5738 106.522L41.5937 108.082H39.9343C39.5236 108.082 39.1626 108.125 38.8512 108.211C38.5399 108.291 38.2848 108.41 38.0861 108.569C37.8874 108.721 37.7383 108.907 37.639 109.125C37.5396 109.337 37.4899 109.579 37.4899 109.851C37.4899 110.116 37.5496 110.354 37.6688 110.566C37.7946 110.778 37.9735 110.947 38.2054 111.073C38.4438 111.192 38.722 111.252 39.04 111.252C39.5037 111.252 39.9078 111.159 40.2522 110.973C40.5967 110.781 40.865 110.549 41.0571 110.278C41.2492 110.006 41.3519 109.748 41.3651 109.503L42.1203 110.636C42.0275 110.907 41.8884 111.195 41.703 111.5C41.5175 111.805 41.279 112.09 40.9875 112.355C40.6961 112.619 40.345 112.838 39.9343 113.01C39.5236 113.183 39.0466 113.269 38.5034 113.269C37.8079 113.269 37.1852 113.13 36.6354 112.851C36.0856 112.573 35.6517 112.192 35.3337 111.709C35.0158 111.225 34.8568 110.675 34.8568 110.059C34.8568 109.49 34.9628 108.986 35.1748 108.549C35.3867 108.112 35.7014 107.744 36.1187 107.446C36.536 107.141 37.0527 106.913 37.6688 106.76C38.2915 106.601 39.0036 106.522 39.8051 106.522H41.5738Z" fill="white"/>
<path d="M48.8373 97.7977V113.07H46.2141V97.7977H48.8373ZM55.5741 102.319L50.8941 107.575L48.3603 110.149L47.5257 108.112L49.4831 105.647L52.4044 102.319H55.5741ZM52.8913 113.07L49.5626 108.062L51.3114 106.363L55.9318 113.07H52.8913Z" fill="white"/>
<path d="M71.4127 110.924V113.07H64.1393V110.924H71.4127ZM64.964 98.6026V113.07H62.2315V98.6026H64.964Z" fill="white"/>
<path d="M72.5753 107.804V107.595C72.5753 106.807 72.6879 106.081 72.9131 105.419C73.1383 104.75 73.4662 104.17 73.8968 103.68C74.3274 103.19 74.854 102.809 75.4767 102.537C76.0994 102.259 76.8082 102.12 77.6031 102.12C78.4112 102.12 79.1266 102.259 79.7493 102.537C80.3786 102.809 80.9086 103.19 81.3391 103.68C81.7697 104.17 82.0976 104.75 82.3228 105.419C82.5481 106.081 82.6607 106.807 82.6607 107.595V107.804C82.6607 108.585 82.5481 109.311 82.3228 109.98C82.0976 110.642 81.7697 111.222 81.3391 111.719C80.9086 112.209 80.3819 112.59 79.7593 112.861C79.1366 113.133 78.4245 113.269 77.6229 113.269C76.828 113.269 76.1159 113.133 75.4866 112.861C74.8573 112.59 74.3274 112.209 73.8968 111.719C73.4662 111.222 73.1383 110.642 72.9131 109.98C72.6879 109.311 72.5753 108.585 72.5753 107.804ZM75.1985 107.595V107.804C75.1985 108.274 75.2448 108.714 75.3376 109.125C75.4303 109.536 75.5727 109.897 75.7648 110.208C75.9569 110.52 76.2054 110.765 76.5101 110.944C76.8214 111.116 77.1924 111.202 77.6229 111.202C78.0469 111.202 78.4112 111.116 78.7159 110.944C79.0207 110.765 79.2691 110.52 79.4612 110.208C79.6599 109.897 79.8056 109.536 79.8984 109.125C79.9911 108.714 80.0375 108.274 80.0375 107.804V107.595C80.0375 107.131 79.9911 106.697 79.8984 106.293C79.8056 105.883 79.6599 105.522 79.4612 105.21C79.2691 104.892 79.0173 104.644 78.706 104.465C78.4013 104.28 78.0336 104.187 77.6031 104.187C77.1791 104.187 76.8148 104.28 76.5101 104.465C76.2054 104.644 75.9569 104.892 75.7648 105.21C75.5727 105.522 75.4303 105.883 75.3376 106.293C75.2448 106.697 75.1985 107.131 75.1985 107.595Z" fill="white"/>
<path d="M91.4047 102.319H93.7894V112.742C93.7894 113.716 93.5774 114.541 93.1535 115.216C92.7362 115.898 92.1499 116.415 91.3948 116.766C90.6396 117.124 89.7619 117.303 88.7616 117.303C88.331 117.303 87.864 117.243 87.3606 117.124C86.8638 117.005 86.3835 116.816 85.9198 116.558C85.4627 116.306 85.0818 115.978 84.7771 115.574L85.9596 114.024C86.3173 114.441 86.7213 114.756 87.1718 114.968C87.6222 115.186 88.1091 115.296 88.6324 115.296C89.1624 115.296 89.6128 115.196 89.9838 114.998C90.3614 114.805 90.6495 114.521 90.8483 114.143C91.0536 113.772 91.1563 113.315 91.1563 112.772V104.773L91.4047 102.319ZM84.1412 107.824V107.615C84.1412 106.793 84.2406 106.048 84.4393 105.379C84.638 104.704 84.9229 104.124 85.2938 103.64C85.6714 103.157 86.1252 102.782 86.6551 102.518C87.1917 102.253 87.7945 102.12 88.4635 102.12C89.1723 102.12 89.7685 102.249 90.2521 102.508C90.7423 102.766 91.1463 103.134 91.4643 103.611C91.7889 104.087 92.0406 104.654 92.2195 105.31C92.405 105.959 92.5474 106.674 92.6467 107.456V108.022C92.554 108.784 92.405 109.483 92.1996 110.119C92.0009 110.755 91.7359 111.311 91.4047 111.788C91.0735 112.258 90.6628 112.623 90.1726 112.881C89.6824 113.139 89.1061 113.269 88.4436 113.269C87.7812 113.269 87.185 113.133 86.6551 112.861C86.1252 112.59 85.6714 112.209 85.2938 111.719C84.9229 111.228 84.638 110.652 84.4393 109.99C84.2406 109.327 84.1412 108.605 84.1412 107.824ZM86.7644 107.615V107.824C86.7644 108.287 86.8108 108.721 86.9035 109.125C86.9963 109.529 87.1387 109.887 87.3308 110.198C87.5229 110.503 87.7647 110.742 88.0561 110.914C88.3476 111.086 88.6954 111.172 89.0994 111.172C89.6426 111.172 90.0865 111.059 90.4309 110.834C90.782 110.602 91.047 110.288 91.2258 109.89C91.4113 109.486 91.5305 109.032 91.5835 108.529V106.969C91.5504 106.572 91.4776 106.204 91.3649 105.866C91.259 105.528 91.1099 105.237 90.9178 104.992C90.7257 104.747 90.4806 104.554 90.1825 104.415C89.8844 104.276 89.53 104.207 89.1193 104.207C88.7219 104.207 88.3741 104.296 88.076 104.475C87.7779 104.647 87.5328 104.889 87.3407 105.2C87.1486 105.512 87.0029 105.873 86.9035 106.283C86.8108 106.694 86.7644 107.138 86.7644 107.615Z" fill="white"/>
<path d="M98.9365 102.319V113.07H96.3033V102.319H98.9365ZM96.1245 99.5068C96.1245 99.116 96.257 98.7914 96.5219 98.533C96.7935 98.2747 97.1579 98.1455 97.6149 98.1455C98.072 98.1455 98.433 98.2747 98.698 98.533C98.9696 98.7914 99.1054 99.116 99.1054 99.5068C99.1054 99.891 98.9696 100.212 98.698 100.471C98.433 100.729 98.072 100.858 97.6149 100.858C97.1579 100.858 96.7935 100.729 96.5219 100.471C96.257 100.212 96.1245 99.891 96.1245 99.5068Z" fill="white"/>
<path d="M105.852 111.202C106.223 111.202 106.554 111.129 106.846 110.983C107.137 110.838 107.369 110.632 107.541 110.367C107.72 110.102 107.816 109.794 107.83 109.443H110.304C110.29 110.172 110.085 110.824 109.688 111.401C109.29 111.977 108.76 112.434 108.098 112.772C107.442 113.103 106.707 113.269 105.892 113.269C105.064 113.269 104.342 113.13 103.726 112.851C103.11 112.573 102.596 112.186 102.186 111.689C101.782 111.192 101.477 110.616 101.272 109.96C101.073 109.304 100.973 108.602 100.973 107.853V107.535C100.973 106.787 101.073 106.085 101.272 105.429C101.477 104.773 101.782 104.197 102.186 103.7C102.596 103.203 103.11 102.816 103.726 102.537C104.342 102.259 105.061 102.12 105.882 102.12C106.75 102.12 107.512 102.289 108.167 102.627C108.83 102.965 109.346 103.442 109.717 104.058C110.095 104.674 110.29 105.399 110.304 106.234H107.83C107.816 105.85 107.73 105.505 107.571 105.2C107.412 104.896 107.187 104.651 106.895 104.465C106.604 104.28 106.25 104.187 105.832 104.187C105.388 104.187 105.018 104.28 104.719 104.465C104.428 104.651 104.199 104.906 104.034 105.23C103.875 105.548 103.762 105.906 103.696 106.303C103.636 106.694 103.607 107.105 103.607 107.535V107.853C103.607 108.291 103.636 108.708 103.696 109.105C103.762 109.503 103.875 109.86 104.034 110.178C104.199 110.49 104.428 110.738 104.719 110.924C105.018 111.109 105.395 111.202 105.852 111.202Z" fill="white"/>
<path d="M39.4538 127.503H37.1001V126.268H39.4538C39.8637 126.268 40.1949 126.201 40.4474 126.069C40.7 125.936 40.8842 125.754 41.0001 125.522C41.1202 125.286 41.1802 125.017 41.1802 124.715C41.1802 124.429 41.1202 124.162 41.0001 123.914C40.8842 123.661 40.7 123.458 40.4474 123.305C40.1949 123.152 39.8637 123.075 39.4538 123.075H37.5783V130.876H36.0195V121.833H39.4538C40.1535 121.833 40.7476 121.958 41.2361 122.206C41.7288 122.45 42.1035 122.79 42.3602 123.225C42.6169 123.655 42.7452 124.148 42.7452 124.703C42.7452 125.286 42.6169 125.787 42.3602 126.205C42.1035 126.624 41.7288 126.944 41.2361 127.168C40.7476 127.392 40.1535 127.503 39.4538 127.503Z" fill="#9692C4"/>
<path d="M54.7442 126.106V126.603C54.7442 127.286 54.6552 127.899 54.4772 128.441C54.2991 128.983 54.0445 129.445 53.7133 129.826C53.3862 130.207 52.9929 130.499 52.5334 130.702C52.0738 130.9 51.5646 131 51.0056 131C50.4509 131 49.9437 130.9 49.4841 130.702C49.0287 130.499 48.6333 130.207 48.298 129.826C47.9626 129.445 47.7018 128.983 47.5155 128.441C47.3333 127.899 47.2422 127.286 47.2422 126.603V126.106C47.2422 125.423 47.3333 124.812 47.5155 124.274C47.6977 123.732 47.9544 123.27 48.2856 122.889C48.6209 122.504 49.0163 122.212 49.4717 122.014C49.9313 121.811 50.4384 121.709 50.9932 121.709C51.5522 121.709 52.0614 121.811 52.5209 122.014C52.9805 122.212 53.3759 122.504 53.7071 122.889C54.0383 123.27 54.2929 123.732 54.471 124.274C54.6531 124.812 54.7442 125.423 54.7442 126.106ZM53.1854 126.603V126.094C53.1854 125.589 53.1358 125.143 53.0364 124.758C52.9412 124.369 52.7983 124.044 52.6079 123.783C52.4216 123.518 52.1918 123.32 51.9186 123.187C51.6453 123.051 51.3369 122.982 50.9932 122.982C50.6496 122.982 50.3432 123.051 50.0741 123.187C49.805 123.32 49.5752 123.518 49.3848 123.783C49.1985 124.044 49.0556 124.369 48.9563 124.758C48.8569 125.143 48.8072 125.589 48.8072 126.094V126.603C48.8072 127.108 48.8569 127.555 48.9563 127.944C49.0556 128.333 49.2005 128.663 49.391 128.932C49.5856 129.197 49.8174 129.397 50.0865 129.534C50.3556 129.667 50.662 129.733 51.0056 129.733C51.3534 129.733 51.6619 129.667 51.931 129.534C52.2001 129.397 52.4278 129.197 52.6141 128.932C52.8004 128.663 52.9412 128.333 53.0364 127.944C53.1358 127.555 53.1854 127.108 53.1854 126.603Z" fill="#9692C4"/>
<path d="M65.3583 129.64V130.876H60.8186V129.64H65.3583ZM61.2534 121.833V130.876H59.6946V121.833H61.2534Z" fill="#9692C4"/>
<path d="M75.6185 129.64V130.876H71.0788V129.64H75.6185ZM71.5135 121.833V130.876H69.9547V121.833H71.5135Z" fill="#9692C4"/>
<path d="M50.9737 51.175L69.9487 32.2L64.4862 26.7375L50.9737 40.25L45.607 34.8833L40.1445 40.3458L50.9737 51.175ZM54.9987 74.175C62.7931 67.0194 68.5751 60.5187 72.3445 54.6729C76.114 48.8271 77.9987 43.6361 77.9987 39.1C77.9987 32.1361 75.7786 26.434 71.3383 21.9937C66.898 17.5535 61.4515 15.3333 54.9987 15.3333C48.5459 15.3333 43.0994 17.5535 38.6591 21.9937C34.2188 26.434 31.9987 32.1361 31.9987 39.1C31.9987 43.6361 33.8834 48.8271 37.6529 54.6729C41.4223 60.5187 47.2043 67.0194 54.9987 74.175ZM54.9987 84.3333C44.7126 75.5805 37.0299 67.4507 31.9508 59.9437C26.8716 52.4368 24.332 45.4889 24.332 39.1C24.332 29.5167 27.4147 21.8819 33.5799 16.1958C39.7452 10.5097 46.8848 7.66666 54.9987 7.66666C63.1126 7.66666 70.2522 10.5097 76.4174 16.1958C82.5827 21.8819 85.6654 29.5167 85.6654 39.1C85.6654 45.4889 83.1258 52.4368 78.0466 59.9437C72.9674 67.4507 65.2848 75.5805 54.9987 84.3333Z" fill="white"/>
</svg>
