<svg width="14" height="16" viewBox="0 0 14 16" fill="none" xmlns="http://www.w3.org/2000/svg">
<path d="M12.25 6.83331C12.25 10.9166 7 14.4166 7 14.4166C7 14.4166 1.75 10.9166 1.75 6.83331C1.75 5.44093 2.30312 4.10557 3.28769 3.121C4.27226 2.13644 5.60761 1.58331 7 1.58331C8.39239 1.58331 9.72774 2.13644 10.7123 3.121C11.6969 4.10557 12.25 5.44093 12.25 6.83331Z" stroke="#E55270" stroke-width="1.5" stroke-linecap="round" stroke-linejoin="round"/>
<path d="M7 8.58331C7.9665 8.58331 8.75 7.79981 8.75 6.83331C8.75 5.86681 7.9665 5.08331 7 5.08331C6.0335 5.08331 5.25 5.86681 5.25 6.83331C5.25 7.79981 6.0335 8.58331 7 8.58331Z" stroke="#E55270" stroke-width="1.5" stroke-linecap="round" stroke-linejoin="round"/>
</svg>
