<svg width="14" height="16" viewBox="0 0 14 16" fill="none" xmlns="http://www.w3.org/2000/svg">
<rect width="14" height="16" fill="#676565"/>
<path d="M-612 -489C-612 -490.105 -611.105 -491 -610 -491H1616C1617.1 -491 1618 -490.105 1618 -489V1022C1618 1023.1 1617.1 1024 1616 1024H-610C-611.105 1024 -612 1023.1 -612 1022V-489Z" fill="#BCB6B6"/>
<path d="M-610 -490H1616V-492H-610V-490ZM1617 -489V1022H1619V-489H1617ZM1616 1023H-610V1025H1616V1023ZM-611 1022V-489H-613V1022H-611ZM-610 1023C-610.552 1023 -611 1022.55 -611 1022H-613C-613 1023.66 -611.657 1025 -610 1025V1023ZM1617 1022C1617 1022.55 1616.55 1023 1616 1023V1025C1617.66 1025 1619 1023.66 1619 1022H1617ZM1616 -490C1616.55 -490 1617 -489.552 1617 -489H1619C1619 -490.657 1617.66 -492 1616 -492V-490ZM-610 -492C-611.657 -492 -613 -490.657 -613 -489H-611C-611 -489.552 -610.552 -490 -610 -490V-492Z" fill="black" fill-opacity="0.1"/>
<g clip-path="url(#clip0_0_1)">
<rect width="375" height="812" transform="translate(-294 -226)" fill="white"/>
<mask id="path-3-inside-1_0_1" fill="white">
<path d="M-270 -13C-270 -24.0457 -261.046 -33 -250 -33H37C48.0457 -33 57 -24.0457 57 -13V184C57 195.046 48.0457 204 37 204H-250C-261.046 204 -270 195.046 -270 184V-13Z"/>
</mask>
<path d="M-270 -13C-270 -24.0457 -261.046 -33 -250 -33H37C48.0457 -33 57 -24.0457 57 -13V184C57 195.046 48.0457 204 37 204H-250C-261.046 204 -270 195.046 -270 184V-13Z" fill="#F5F4F9"/>
<path d="M-270 -33H57H-270ZM57 204H-270H57ZM-250 204C-262.15 204 -272 194.15 -272 182V-11C-272 -23.1503 -262.15 -33 -250 -33C-259.941 -33 -268 -24.0457 -268 -13V184C-268 195.046 -259.941 204 -250 204ZM57 -33V204V-33Z" fill="#2E1E88" mask="url(#path-3-inside-1_0_1)"/>
<path d="M12.25 6.83331C12.25 10.9166 7 14.4166 7 14.4166C7 14.4166 1.75 10.9166 1.75 6.83331C1.75 5.44093 2.30312 4.10557 3.28769 3.121C4.27226 2.13644 5.60761 1.58331 7 1.58331C8.39239 1.58331 9.72774 2.13644 10.7123 3.121C11.6969 4.10557 12.25 5.44093 12.25 6.83331Z" stroke="#E55270" stroke-width="1.5" stroke-linecap="round" stroke-linejoin="round"/>
<path d="M7 8.58331C7.9665 8.58331 8.75 7.79981 8.75 6.83331C8.75 5.86681 7.9665 5.08331 7 5.08331C6.0335 5.08331 5.25 5.86681 5.25 6.83331C5.25 7.79981 6.0335 8.58331 7 8.58331Z" stroke="#E55270" stroke-width="1.5" stroke-linecap="round" stroke-linejoin="round"/>
</g>
<defs>
<clipPath id="clip0_0_1">
<rect width="375" height="812" fill="white" transform="translate(-294 -226)"/>
</clipPath>
</defs>
</svg>
