<svg width="24" height="24" viewBox="0 0 24 24" fill="none" xmlns="http://www.w3.org/2000/svg">
<rect width="24" height="24" fill="#676565"/>
<g id="Home screen">
<path d="M-1565 -338C-1565 -339.105 -1564.1 -340 -1563 -340H4995C4996.1 -340 4997 -339.105 4997 -338V1988C4997 1989.1 4996.1 1990 4995 1990H-1563C-1564.1 1990 -1565 1989.1 -1565 1988V-338Z" fill="#BCB6B6"/>
<path d="M-1563 -339H4995V-341H-1563V-339ZM4996 -338V1988H4998V-338H4996ZM4995 1989H-1563V1991H4995V1989ZM-1564 1988V-338H-1566V1988H-1564ZM-1563 1989C-1563.55 1989 -1564 1988.55 -1564 1988H-1566C-1566 1989.66 -1564.66 1991 -1563 1991V1989ZM4996 1988C4996 1988.55 4995.55 1989 4995 1989V1991C4996.66 1991 4998 1989.66 4998 1988H4996ZM4995 -339C4995.55 -339 4996 -338.552 4996 -338H4998C4998 -339.657 4996.66 -341 4995 -341V-339ZM-1563 -341C-1564.66 -341 -1566 -339.657 -1566 -338H-1564C-1564 -338.552 -1563.55 -339 -1563 -339V-341Z" fill="black" fill-opacity="0.1"/>
<g id="Home Screen + filter" clip-path="url(#clip0_0_1)">
<rect width="375" height="812" transform="translate(-170 -75)" fill="white"/>
<g id="Group 13362">
<g id="Frame 13418">
<g id="Frame 13419">
<rect x="-8" y="-8" width="40" height="40" rx="6" fill="#251F67"/>
<g id="maximize">
<path id="Vector" d="M8 3H5C4.46957 3 3.96086 3.21071 3.58579 3.58579C3.21071 3.96086 3 4.46957 3 5V8M21 8V5C21 4.46957 20.7893 3.96086 20.4142 3.58579C20.0391 3.21071 19.5304 3 19 3H16M16 21H19C19.5304 21 20.0391 20.7893 20.4142 20.4142C20.7893 20.0391 21 19.5304 21 19V16M3 16V19C3 19.5304 3.21071 20.0391 3.58579 20.4142C3.96086 20.7893 4.46957 21 5 21H8" stroke="white" stroke-width="2" stroke-linecap="round" stroke-linejoin="round"/>
</g>
</g>
</g>
</g>
</g>
</g>
<defs>
<clipPath id="clip0_0_1">
<rect width="375" height="812" fill="white" transform="translate(-170 -75)"/>
</clipPath>
</defs>
</svg>
