<svg width="25" height="24" viewBox="0 0 25 24" fill="none" xmlns="http://www.w3.org/2000/svg">
<g clip-path="url(#clip0_314_13655)">
<path d="M18.8728 0.12439H15.6411C12.4703 0.12439 9.89062 2.70408 9.89062 5.8749C9.89062 6.80678 10.1184 7.73181 10.5493 8.55001L10.5216 8.56459C12.5224 8.86581 14.2517 10.0072 15.3375 11.6169C15.4386 11.6221 15.54 11.6254 15.6411 11.6254H17.9914L18.1582 12.1033C18.6303 13.4551 19.9095 14.3633 21.3414 14.3633H21.5947C21.1668 13.6122 20.9513 12.7655 20.969 11.8945L20.9823 11.2441L21.3754 11.0538C23.3484 10.0984 24.6233 8.06554 24.6233 5.87494C24.6233 2.70408 22.0436 0.12439 18.8728 0.12439ZM19.8996 7.45067L18.8915 8.45878L17.257 6.82424L15.6224 8.45878L14.6143 7.45067L16.2488 5.81613L14.6143 4.18159L15.6224 3.17347L17.257 4.80801L18.8915 3.17347L19.8996 4.18159L18.2651 5.81613L19.8996 7.45067Z" fill="white"/>
<path d="M9.46459 9.91113H6.28046C3.16199 9.91113 0.625 12.4482 0.625 15.5666C0.625 17.7214 1.87906 19.7207 3.81994 20.6602L4.21304 20.8505L4.22552 21.453C4.24294 22.3072 4.03319 23.1377 3.61656 23.8755H3.84811C5.23657 23.8755 6.4876 22.998 6.961 21.692L7.13135 21.222H9.46459C12.583 21.222 15.12 18.6851 15.12 15.5666C15.12 12.4482 12.583 9.91113 9.46459 9.91113ZM7.46978 18.18L5.02682 16.0425L5.96573 14.9695L7.32467 16.1586L9.70751 13.3787L10.79 14.3065L7.46978 18.18Z" fill="white"/>
</g>
<defs>
<clipPath id="clip0_314_13655">
<rect width="24" height="24" fill="white" transform="translate(0.625)"/>
</clipPath>
</defs>
</svg>
