<svg width="30" height="30" viewBox="0 0 30 30" fill="none" xmlns="http://www.w3.org/2000/svg">
<g id="Palm of hand">
<g id="Group">
<path id="Vector" d="M23.3466 6.34616V13.8462C23.3466 14.1646 23.0881 14.4231 22.7697 14.4231C22.4512 14.4231 22.1927 14.1646 22.1927 13.8462V2.88462H18.7312V12.6923C18.7312 13.0108 18.4727 13.2692 18.1543 13.2692C17.8358 13.2692 17.5774 13.0108 17.5774 12.6923V1.73077H14.1158V12.6923C14.1158 13.0108 13.8574 13.2692 13.5389 13.2692C13.2204 13.2692 12.962 13.0108 12.962 12.6923V4.03847H9.50044V18.4615L7.1639 15.2642C6.47159 14.1969 5.12044 13.8392 4.13044 14.4508C3.1439 15.0762 2.89928 16.44 3.58236 17.5039C3.58236 17.5039 7.35082 23.2073 8.95697 25.6489C10.5631 28.0904 13.165 30 18.0308 30C26.087 30 26.8081 23.7785 26.8081 21.9231C26.8081 20.0677 26.8081 6.34616 26.8081 6.34616H23.3466Z" fill="url(#paint0_linear_314_4279)"/>
<g id="Group 13358">
<path id="Vector_2" d="M25.0745 8.07677C26.0304 8.07677 26.8053 7.30188 26.8053 6.346C26.8053 5.39013 26.0304 4.61523 25.0745 4.61523C24.1186 4.61523 23.3438 5.39013 23.3438 6.346C23.3438 7.30188 24.1186 8.07677 25.0745 8.07677Z" fill="#8172CC"/>
<path id="Vector_3" d="M20.4651 4.61535C21.421 4.61535 22.1959 3.84046 22.1959 2.88458C22.1959 1.9287 21.421 1.15381 20.4651 1.15381C19.5093 1.15381 18.7344 1.9287 18.7344 2.88458C18.7344 3.84046 19.5093 4.61535 20.4651 4.61535Z" fill="#A094D8"/>
<path id="Vector_4" d="M15.848 3.46154C16.8038 3.46154 17.5787 2.68665 17.5787 1.73077C17.5787 0.774892 16.8038 0 15.848 0C14.8921 0 14.1172 0.774892 14.1172 1.73077C14.1172 2.68665 14.8921 3.46154 15.848 3.46154Z" fill="#BBB2E3"/>
<path id="Vector_5" d="M11.2308 5.76916C12.1866 5.76916 12.9615 4.99426 12.9615 4.03839C12.9615 3.08251 12.1866 2.30762 11.2308 2.30762C10.2749 2.30762 9.5 3.08251 9.5 4.03839C9.5 4.99426 10.2749 5.76916 11.2308 5.76916Z" fill="#CFC9EB"/>
</g>
</g>
</g>
<defs>
<linearGradient id="paint0_linear_314_4279" x1="3.59114" y1="1.14529" x2="32.0912" y2="14.0194" gradientUnits="userSpaceOnUse">
<stop stop-color="white"/>
<stop offset="1" stop-color="white" stop-opacity="0"/>
</linearGradient>
</defs>
</svg>
