<svg width="24" height="24" viewBox="0 0 24 24" fill="none" xmlns="http://www.w3.org/2000/svg">
<g id="paperclip">
<path id="Vector" d="M21.4383 11.05L12.2483 20.24C11.1225 21.3659 9.59552 21.9984 8.00334 21.9984C6.41115 21.9984 4.88418 21.3659 3.75834 20.24C2.63249 19.1142 2 17.5872 2 15.995C2 14.4029 2.63249 12.8759 3.75834 11.75L12.3283 3.18003C13.0789 2.42815 14.0974 2.00521 15.1598 2.00427C16.2222 2.00334 17.2414 2.42447 17.9933 3.17503C18.7452 3.9256 19.1682 4.9441 19.1691 6.0065C19.17 7.06889 18.7489 8.08815 17.9983 8.84003L9.40834 17.41C9.03306 17.7853 8.52406 17.9961 7.99334 17.9961C7.46261 17.9961 6.95362 17.7853 6.57834 17.41C6.20306 17.0348 5.99222 16.5258 5.99222 15.995C5.99222 15.4643 6.20306 14.9553 6.57834 14.58L15.0683 6.10003" stroke="#251F67" stroke-width="2" stroke-linecap="round" stroke-linejoin="round"/>
</g>
</svg>
