<svg width="25" height="24" viewBox="0 0 25 24" fill="none" xmlns="http://www.w3.org/2000/svg">
<g clip-path="url(#clip0_314_14756)">
<path d="M7.47315 13.8363H0.375V23.3681H7.47315V13.8363Z" fill="#9BA6BE"/>
<path d="M24.3794 11.3872H17.2812V23.3682H24.3794V11.3872Z" fill="#9BA6BE"/>
<path d="M15.9283 7.83301H8.82812V23.3682H15.9283V7.83301Z" fill="#9BA6BE"/>
<path d="M20.8816 4.16553L21.8868 6.20474L24.1382 6.53223L22.5109 8.11934L22.894 10.3615L20.8816 9.30272L18.8692 10.3615L19.2523 8.11934L17.625 6.53223L19.8743 6.20469L20.8816 4.16553Z" fill="#9BA6BE"/>
<path d="M12.4128 0.631836L13.4191 2.6721L15.6705 2.99964L14.0432 4.58775L14.4274 6.82778L12.4139 5.77007L10.4004 6.82778L10.7835 4.58775L9.15625 2.99964L11.4066 2.6721L12.4128 0.631836Z" fill="#9BA6BE"/>
<path d="M3.80341 6.54346L4.8086 8.58372L7.06 8.91226L5.43378 10.4983L5.81689 12.7394L3.80341 11.6817L1.78993 12.7405L2.17409 10.4994L0.546875 8.91326L2.79722 8.58472L3.80341 6.54346Z" fill="#9BA6BE"/>
</g>
<defs>
<clipPath id="clip0_314_14756">
<rect width="24" height="24" fill="white" transform="translate(0.375)"/>
</clipPath>
</defs>
</svg>
