<svg width="24" height="24" viewBox="0 0 24 24" fill="none" xmlns="http://www.w3.org/2000/svg">
<g clip-path="url(#clip0_314_13712)">
<path d="M15.8333 16.3825C16.489 15.4627 16.875 14.3381 16.875 13.125C16.875 10.0234 14.3516 7.5 11.25 7.5C8.14838 7.5 5.625 10.0234 5.625 13.125C5.625 16.2266 8.14838 18.75 11.25 18.75C12.4631 18.75 13.5877 18.3639 14.5075 17.7083L16.7746 19.9754C17.1407 20.3415 17.7343 20.3415 18.1004 19.9754C18.4665 19.6093 18.4665 19.0157 18.1004 18.6496L15.8333 16.3825ZM7.5 13.125C7.5 11.0573 9.18225 9.375 11.25 9.375C13.3177 9.375 15 11.0573 15 13.125C15 14.1563 14.5814 15.0917 13.9053 15.7703C13.9036 15.772 13.9017 15.7734 13.9001 15.7751C13.8984 15.7768 13.897 15.7786 13.8953 15.7803C13.2167 16.4564 12.2813 16.875 11.25 16.875C9.18225 16.875 7.5 15.1927 7.5 13.125Z" fill="white"/>
<path d="M21.1875 0H2.8125C1.26169 0 0 1.26169 0 2.8125V21.1875C0 22.7383 1.26169 24 2.8125 24H21.1875C22.7383 24 24 22.7383 24 21.1875V2.8125C24 1.26169 22.7383 0 21.1875 0ZM22.125 2.8125V3.75H9.80527V1.875H21.1875C21.7044 1.875 22.125 2.29556 22.125 2.8125ZM2.8125 1.875H7.93027V3.75H1.875V2.8125C1.875 2.29556 2.29556 1.875 2.8125 1.875ZM21.1875 22.125H2.8125C2.29556 22.125 1.875 21.7044 1.875 21.1875V5.625H22.125V21.1875C22.125 21.7044 21.7044 22.125 21.1875 22.125Z" fill="white"/>
</g>
<defs>
<clipPath id="clip0_314_13712">
<rect width="24" height="24" fill="white"/>
</clipPath>
</defs>
</svg>
