<svg width="30" height="30" viewBox="0 0 30 30" fill="none" xmlns="http://www.w3.org/2000/svg">
<g id="Selection" clip-path="url(#clip0_314_2832)">
<g id="Group">
<g id="Group_2">
<g id="Group_3">
<g id="Vector">
<path d="M13.237 14.1105H2.31493C1.03867 14.1105 0 15.1712 0 16.4752V27.6347C0 28.9387 1.03867 30 2.31493 30H13.237C14.5133 30 15.5514 28.9387 15.5514 27.6347V16.4752C15.5514 15.1712 14.5133 14.1105 13.237 14.1105ZM12.6615 19.7158L6.86496 25.6377C6.52982 25.9813 5.98485 25.982 5.64783 25.6377L2.89046 22.821C2.55475 22.4774 2.55475 21.9204 2.89046 21.5768C3.22675 21.2338 3.77189 21.2338 4.10817 21.5768L6.25668 23.772L11.4437 18.4722C11.78 18.1286 12.3251 18.1286 12.6614 18.4722C12.9972 18.8152 12.9972 19.3723 12.6615 19.7158Z" fill="url(#paint0_linear_314_2832)"/>
<path d="M13.237 14.1105H2.31493C1.03867 14.1105 0 15.1712 0 16.4752V27.6347C0 28.9387 1.03867 30 2.31493 30H13.237C14.5133 30 15.5514 28.9387 15.5514 27.6347V16.4752C15.5514 15.1712 14.5133 14.1105 13.237 14.1105ZM12.6615 19.7158L6.86496 25.6377C6.52982 25.9813 5.98485 25.982 5.64783 25.6377L2.89046 22.821C2.55475 22.4774 2.55475 21.9204 2.89046 21.5768C3.22675 21.2338 3.77189 21.2338 4.10817 21.5768L6.25668 23.772L11.4437 18.4722C11.78 18.1286 12.3251 18.1286 12.6614 18.4722C12.9972 18.8152 12.9972 19.3723 12.6615 19.7158Z" fill="url(#paint1_linear_314_2832)"/>
</g>
</g>
</g>
<g id="Group_4">
<g id="Group_5">
<g id="Vector_2">
<path d="M22.4654 9.36771V20.6117C22.4654 21.8922 21.4457 22.9347 20.1924 22.9347H17.2721V16.4752C17.2721 14.2014 15.4616 12.3515 13.2362 12.3515H6.91406V9.36771C6.91406 8.0872 7.93438 7.04529 9.18764 7.04529H20.1924C21.4457 7.04529 22.4654 8.0872 22.4654 9.36771Z" fill="url(#paint2_linear_314_2832)"/>
<path d="M22.4654 9.36771V20.6117C22.4654 21.8922 21.4457 22.9347 20.1924 22.9347H17.2721V16.4752C17.2721 14.2014 15.4616 12.3515 13.2362 12.3515H6.91406V9.36771C6.91406 8.0872 7.93438 7.04529 9.18764 7.04529H20.1924C21.4457 7.04529 22.4654 8.0872 22.4654 9.36771Z" fill="url(#paint3_linear_314_2832)"/>
</g>
</g>
</g>
<g id="Group_6">
<g id="Group_7">
<g id="Vector_3">
<path d="M29.3639 2.32301V13.567C29.3639 14.8475 28.3436 15.8894 27.0903 15.8894H24.19V9.36774C24.19 7.11744 22.3979 5.28633 20.1955 5.28633H13.8125V2.32301C13.8125 1.0425 14.8322 0 16.0855 0H27.0902C28.3436 0 29.3639 1.0425 29.3639 2.32301Z" fill="url(#paint4_linear_314_2832)"/>
<path d="M29.3639 2.32301V13.567C29.3639 14.8475 28.3436 15.8894 27.0903 15.8894H24.19V9.36774C24.19 7.11744 22.3979 5.28633 20.1955 5.28633H13.8125V2.32301C13.8125 1.0425 14.8322 0 16.0855 0H27.0902C28.3436 0 29.3639 1.0425 29.3639 2.32301Z" fill="url(#paint5_linear_314_2832)"/>
</g>
</g>
</g>
</g>
</g>
<defs>
<linearGradient id="paint0_linear_314_2832" x1="7.77569" y1="14.1105" x2="7.77569" y2="30" gradientUnits="userSpaceOnUse">
<stop stop-color="white"/>
<stop offset="1" stop-color="white" stop-opacity="0"/>
</linearGradient>
<linearGradient id="paint1_linear_314_2832" x1="0.260692" y1="13.7814" x2="17.915" y2="23.1258" gradientUnits="userSpaceOnUse">
<stop stop-color="white"/>
<stop offset="1" stop-color="white" stop-opacity="0"/>
</linearGradient>
<linearGradient id="paint2_linear_314_2832" x1="14.6898" y1="7.04529" x2="14.6898" y2="22.9347" gradientUnits="userSpaceOnUse">
<stop stop-color="white"/>
<stop offset="1" stop-color="white" stop-opacity="0"/>
</linearGradient>
<linearGradient id="paint3_linear_314_2832" x1="7.17475" y1="6.7162" x2="24.8291" y2="16.0606" gradientUnits="userSpaceOnUse">
<stop stop-color="white"/>
<stop offset="1" stop-color="white" stop-opacity="0"/>
</linearGradient>
<linearGradient id="paint4_linear_314_2832" x1="21.5882" y1="0" x2="21.5882" y2="15.8894" gradientUnits="userSpaceOnUse">
<stop stop-color="white"/>
<stop offset="1" stop-color="white" stop-opacity="0"/>
</linearGradient>
<linearGradient id="paint5_linear_314_2832" x1="14.0732" y1="-0.329086" x2="31.7275" y2="9.01528" gradientUnits="userSpaceOnUse">
<stop stop-color="white"/>
<stop offset="1" stop-color="white" stop-opacity="0"/>
</linearGradient>
<clipPath id="clip0_314_2832">
<rect width="29.3617" height="30" fill="white"/>
</clipPath>
</defs>
</svg>
