<svg width="60" height="60" viewBox="0 0 60 60" fill="none" xmlns="http://www.w3.org/2000/svg">
<rect width="60" height="60" rx="16" fill="#5742BB"/>
<g clip-path="url(#clip0_314_4324)">
<path d="M28.237 29.1105H17.3149C16.0387 29.1105 15 30.1712 15 31.4752V42.6347C15 43.9387 16.0387 45 17.3149 45H28.237C29.5133 45 30.5514 43.9387 30.5514 42.6347V31.4752C30.5514 30.1712 29.5133 29.1105 28.237 29.1105ZM27.6615 34.7158L21.865 40.6377C21.5298 40.9813 20.9849 40.982 20.6478 40.6377L17.8905 37.821C17.5548 37.4774 17.5548 36.9204 17.8905 36.5768C18.2267 36.2338 18.7719 36.2338 19.1082 36.5768L21.2567 38.772L26.4437 33.4722C26.78 33.1286 27.3251 33.1286 27.6614 33.4722C27.9972 33.8152 27.9972 34.3723 27.6615 34.7158Z" fill="url(#paint0_linear_314_4324)"/>
<path d="M28.237 29.1105H17.3149C16.0387 29.1105 15 30.1712 15 31.4752V42.6347C15 43.9387 16.0387 45 17.3149 45H28.237C29.5133 45 30.5514 43.9387 30.5514 42.6347V31.4752C30.5514 30.1712 29.5133 29.1105 28.237 29.1105ZM27.6615 34.7158L21.865 40.6377C21.5298 40.9813 20.9849 40.982 20.6478 40.6377L17.8905 37.821C17.5548 37.4774 17.5548 36.9204 17.8905 36.5768C18.2267 36.2338 18.7719 36.2338 19.1082 36.5768L21.2567 38.772L26.4437 33.4722C26.78 33.1286 27.3251 33.1286 27.6614 33.4722C27.9972 33.8152 27.9972 34.3723 27.6615 34.7158Z" fill="url(#paint1_linear_314_4324)"/>
<path d="M37.4654 24.3677V35.6117C37.4654 36.8922 36.4457 37.9347 35.1924 37.9347H32.2721V31.4752C32.2721 29.2014 30.4616 27.3515 28.2362 27.3515H21.9141V24.3677C21.9141 23.0872 22.9344 22.0453 24.1876 22.0453H35.1924C36.4457 22.0453 37.4654 23.0872 37.4654 24.3677Z" fill="url(#paint2_linear_314_4324)"/>
<path d="M37.4654 24.3677V35.6117C37.4654 36.8922 36.4457 37.9347 35.1924 37.9347H32.2721V31.4752C32.2721 29.2014 30.4616 27.3515 28.2362 27.3515H21.9141V24.3677C21.9141 23.0872 22.9344 22.0453 24.1876 22.0453H35.1924C36.4457 22.0453 37.4654 23.0872 37.4654 24.3677Z" fill="url(#paint3_linear_314_4324)"/>
<path d="M44.3639 17.323V28.567C44.3639 29.8475 43.3436 30.8894 42.0903 30.8894H39.19V24.3677C39.19 22.1174 37.3979 20.2863 35.1955 20.2863H28.8125V17.323C28.8125 16.0425 29.8322 15 31.0855 15H42.0902C43.3436 15 44.3639 16.0425 44.3639 17.323Z" fill="url(#paint4_linear_314_4324)"/>
<path d="M44.3639 17.323V28.567C44.3639 29.8475 43.3436 30.8894 42.0903 30.8894H39.19V24.3677C39.19 22.1174 37.3979 20.2863 35.1955 20.2863H28.8125V17.323C28.8125 16.0425 29.8322 15 31.0855 15H42.0902C43.3436 15 44.3639 16.0425 44.3639 17.323Z" fill="url(#paint5_linear_314_4324)"/>
</g>
<defs>
<linearGradient id="paint0_linear_314_4324" x1="22.7757" y1="29.1105" x2="22.7757" y2="45" gradientUnits="userSpaceOnUse">
<stop stop-color="white"/>
<stop offset="1" stop-color="white" stop-opacity="0"/>
</linearGradient>
<linearGradient id="paint1_linear_314_4324" x1="15.2607" y1="28.7814" x2="32.915" y2="38.1258" gradientUnits="userSpaceOnUse">
<stop stop-color="white"/>
<stop offset="1" stop-color="white" stop-opacity="0"/>
</linearGradient>
<linearGradient id="paint2_linear_314_4324" x1="29.6898" y1="22.0453" x2="29.6898" y2="37.9347" gradientUnits="userSpaceOnUse">
<stop stop-color="white"/>
<stop offset="1" stop-color="white" stop-opacity="0"/>
</linearGradient>
<linearGradient id="paint3_linear_314_4324" x1="22.1748" y1="21.7162" x2="39.8291" y2="31.0606" gradientUnits="userSpaceOnUse">
<stop stop-color="white"/>
<stop offset="1" stop-color="white" stop-opacity="0"/>
</linearGradient>
<linearGradient id="paint4_linear_314_4324" x1="36.5882" y1="15" x2="36.5882" y2="30.8894" gradientUnits="userSpaceOnUse">
<stop stop-color="white"/>
<stop offset="1" stop-color="white" stop-opacity="0"/>
</linearGradient>
<linearGradient id="paint5_linear_314_4324" x1="29.0732" y1="14.6709" x2="46.7275" y2="24.0153" gradientUnits="userSpaceOnUse">
<stop stop-color="white"/>
<stop offset="1" stop-color="white" stop-opacity="0"/>
</linearGradient>
<clipPath id="clip0_314_4324">
<rect width="29.3617" height="30" fill="white" transform="translate(15 15)"/>
</clipPath>
</defs>
</svg>
