<svg width="25" height="24" viewBox="0 0 25 24" fill="none" xmlns="http://www.w3.org/2000/svg">
<path d="M20.6406 2H4.64062C3.53606 2 2.64062 2.89543 2.64062 4V8C2.64062 9.10457 3.53606 10 4.64062 10H20.6406C21.7452 10 22.6406 9.10457 22.6406 8V4C22.6406 2.89543 21.7452 2 20.6406 2Z" stroke="white" stroke-width="2" stroke-linecap="round" stroke-linejoin="round"/>
<path d="M20.6406 14H4.64062C3.53606 14 2.64062 14.8954 2.64062 16V20C2.64062 21.1046 3.53606 22 4.64062 22H20.6406C21.7452 22 22.6406 21.1046 22.6406 20V16C22.6406 14.8954 21.7452 14 20.6406 14Z" stroke="white" stroke-width="2" stroke-linecap="round" stroke-linejoin="round"/>
<path d="M6.64062 6H6.65063" stroke="white" stroke-width="2" stroke-linecap="round" stroke-linejoin="round"/>
<path d="M6.64062 18H6.65063" stroke="white" stroke-width="2" stroke-linecap="round" stroke-linejoin="round"/>
</svg>
