<svg width="14" height="14" viewBox="0 0 14 14" fill="none" xmlns="http://www.w3.org/2000/svg">
<rect width="14" height="14" fill="#676565"/>
<path d="M-358 -667C-358 -668.105 -357.105 -669 -356 -669H1870C1871.1 -669 1872 -668.105 1872 -667V844C1872 845.105 1871.1 846 1870 846H-356C-357.105 846 -358 845.105 -358 844V-667Z" fill="#BCB6B6"/>
<path d="M-356 -668H1870V-670H-356V-668ZM1871 -667V844H1873V-667H1871ZM1870 845H-356V847H1870V845ZM-357 844V-667H-359V844H-357ZM-356 845C-356.552 845 -357 844.552 -357 844H-359C-359 845.657 -357.657 847 -356 847V845ZM1871 844C1871 844.552 1870.55 845 1870 845V847C1871.66 847 1873 845.657 1873 844H1871ZM1870 -668C1870.55 -668 1871 -667.552 1871 -667H1873C1873 -668.657 1871.66 -670 1870 -670V-668ZM-356 -670C-357.657 -670 -359 -668.657 -359 -667H-357C-357 -667.552 -356.552 -668 -356 -668V-670Z" fill="black" fill-opacity="0.1"/>
<g clip-path="url(#clip0_0_1)">
<rect width="375" height="812" transform="translate(-40 -404)" fill="white"/>
<mask id="path-3-inside-1_0_1" fill="white">
<path d="M-16 -191C-16 -202.046 -7.0457 -211 4 -211H291C302.046 -211 311 -202.046 311 -191V6C311 17.0457 302.046 26 291 26H3.99999C-7.0457 26 -16 17.0457 -16 6V-191Z"/>
</mask>
<path d="M-16 -191C-16 -202.046 -7.0457 -211 4 -211H291C302.046 -211 311 -202.046 311 -191V6C311 17.0457 302.046 26 291 26H3.99999C-7.0457 26 -16 17.0457 -16 6V-191Z" fill="#F5F4F9"/>
<path d="M-16 -211H311H-16ZM311 26H-16H311ZM4 26C-8.15026 26 -18 16.1503 -18 4V-189C-18 -201.15 -8.15026 -211 4 -211C-5.94113 -211 -14 -202.046 -14 -191V6C-14 17.0457 -5.94113 26 4 26ZM311 -211V26V-211Z" fill="#2E1E88" mask="url(#path-3-inside-1_0_1)"/>
<g clip-path="url(#clip1_0_1)">
<path d="M9.91927 12.25V11.0833C9.91927 10.4645 9.67344 9.871 9.23585 9.43342C8.79827 8.99583 8.20478 8.75 7.58594 8.75H2.91927C2.30043 8.75 1.70694 8.99583 1.26936 9.43342C0.83177 9.871 0.585938 10.4645 0.585938 11.0833V12.25" stroke="#251F67" stroke-width="1.5" stroke-linecap="round" stroke-linejoin="round"/>
<path d="M5.2474 6.41667C6.53606 6.41667 7.58073 5.372 7.58073 4.08333C7.58073 2.79467 6.53606 1.75 5.2474 1.75C3.95873 1.75 2.91406 2.79467 2.91406 4.08333C2.91406 5.372 3.95873 6.41667 5.2474 6.41667Z" stroke="#251F67" stroke-width="1.5" stroke-linecap="round" stroke-linejoin="round"/>
<path d="M13.4141 12.2499V11.0832C13.4137 10.5662 13.2416 10.064 12.9249 9.65537C12.6081 9.24677 12.1646 8.95493 11.6641 8.82568" stroke="#251F67" stroke-width="1.5" stroke-linecap="round" stroke-linejoin="round"/>
<path d="M9.33594 1.82568C9.83785 1.95419 10.2827 2.24609 10.6004 2.65536C10.9181 3.06464 11.0905 3.568 11.0905 4.0861C11.0905 4.6042 10.9181 5.10756 10.6004 5.51684C10.2827 5.92611 9.83785 6.21801 9.33594 6.34652" stroke="#251F67" stroke-width="1.5" stroke-linecap="round" stroke-linejoin="round"/>
</g>
</g>
<defs>
<clipPath id="clip0_0_1">
<rect width="375" height="812" fill="white" transform="translate(-40 -404)"/>
</clipPath>
<clipPath id="clip1_0_1">
<rect width="14" height="14" fill="white"/>
</clipPath>
</defs>
</svg>
