<svg width="14" height="14" viewBox="0 0 14 14" fill="none" xmlns="http://www.w3.org/2000/svg">
<g id="users" clip-path="url(#clip0_314_17926)">
<path id="Vector" d="M9.91927 12.25V11.0833C9.91927 10.4645 9.67344 9.871 9.23585 9.43342C8.79827 8.99583 8.20478 8.75 7.58594 8.75H2.91927C2.30043 8.75 1.70694 8.99583 1.26936 9.43342C0.83177 9.871 0.585938 10.4645 0.585938 11.0833V12.25" stroke="#251F67" stroke-width="1.5" stroke-linecap="round" stroke-linejoin="round"/>
<path id="Vector_2" d="M5.2474 6.41667C6.53606 6.41667 7.58073 5.372 7.58073 4.08333C7.58073 2.79467 6.53606 1.75 5.2474 1.75C3.95873 1.75 2.91406 2.79467 2.91406 4.08333C2.91406 5.372 3.95873 6.41667 5.2474 6.41667Z" stroke="#251F67" stroke-width="1.5" stroke-linecap="round" stroke-linejoin="round"/>
<path id="Vector_3" d="M13.4141 12.2499V11.0832C13.4137 10.5662 13.2416 10.064 12.9249 9.65537C12.6081 9.24677 12.1646 8.95493 11.6641 8.82568" stroke="#251F67" stroke-width="1.5" stroke-linecap="round" stroke-linejoin="round"/>
<path id="Vector_4" d="M9.33594 1.82568C9.83785 1.95419 10.2827 2.24609 10.6004 2.65536C10.9181 3.06464 11.0905 3.568 11.0905 4.0861C11.0905 4.6042 10.9181 5.10756 10.6004 5.51684C10.2827 5.92611 9.83785 6.21801 9.33594 6.34652" stroke="#251F67" stroke-width="1.5" stroke-linecap="round" stroke-linejoin="round"/>
</g>
<defs>
<clipPath id="clip0_314_17926">
<rect width="14" height="14" fill="white"/>
</clipPath>
</defs>
</svg>
